<?xml version="1.0" encoding="UTF-8" standalone="no"?>
<!-- Created with Inkscape (http://www.inkscape.org/) -->

<svg
   width="49.554585mm"
   height="8.9387693mm"
   viewBox="0 0 49.554585 8.9387696"
   version="1.1"
   id="svg5"
   xmlns="http://www.w3.org/2000/svg"
   xmlns:svg="http://www.w3.org/2000/svg">
  <defs
     id="defs2" />
  <g
     id="layer1"
     transform="translate(0,-103.0837)">
    <g
       id="g10748"
       transform="translate(-0.7548955)">
      <path
         style="fill:#ffffff;fill-opacity:1;stroke:#cc781c;stroke-width:7.34348;stroke-miterlimit:4;stroke-dasharray:none;stroke-opacity:1"
         id="path1312-8-8-6-8-8-4-6-7-4-4-8"
         transform="matrix(0.08776497,0,0,0.09066208,22.573976,96.500682)"
         d="m 264.96369,76.283081 c 4.95339,0 10.60729,26.701029 14.61467,29.612559 4.00737,2.91153 31.14871,0.0376 32.67939,4.7486 1.53069,4.71095 -22.11635,18.3392 -23.64703,23.05016 -1.53068,4.71095 9.58968,29.63582 5.58231,32.54735 -4.00738,2.91153 -24.27596,-15.36678 -29.22935,-15.36678 -4.95339,0 -25.22196,18.27831 -29.22934,15.36678 -4.00738,-2.91153 7.11299,-27.8364 5.58231,-32.54735 -1.53068,-4.71096 -25.17772,-18.33921 -23.64704,-23.05017 1.53069,-4.71095 28.67203,-1.83706 32.6794,-4.74859 4.00738,-2.91153 9.66128,-29.612559 14.61468,-29.612559 z" />
      <path
         style="fill:#ffffff;fill-opacity:1;stroke:#cc781c;stroke-width:7.34348;stroke-miterlimit:4;stroke-dasharray:none;stroke-opacity:1"
         id="path1312-8-8-6-8-8-1-4-7-8-8-3-7"
         transform="matrix(0.08776497,0,0,0.09066208,12.426042,96.587418)"
         d="m 264.96369,76.283081 c 4.95339,0 10.60729,26.701029 14.61467,29.612559 4.00737,2.91153 31.14871,0.0376 32.67939,4.7486 1.53069,4.71095 -22.11635,18.3392 -23.64703,23.05016 -1.53068,4.71095 9.58968,29.63582 5.58231,32.54735 -4.00738,2.91153 -24.27596,-15.36678 -29.22935,-15.36678 -4.95339,0 -25.22196,18.27831 -29.22934,15.36678 -4.00738,-2.91153 7.11299,-27.8364 5.58231,-32.54735 -1.53068,-4.71096 -25.17772,-18.33921 -23.64704,-23.05017 1.53069,-4.71095 28.67203,-1.83706 32.6794,-4.74859 4.00738,-2.91153 9.66128,-29.612559 14.61468,-29.612559 z" />
      <path
         style="fill:#ffffff;fill-opacity:1;stroke:#cc781c;stroke-width:7.34348;stroke-miterlimit:4;stroke-dasharray:none;stroke-opacity:1"
         id="path1312-8-8-6-8-8-1-4-7-1-7-8-3-4"
         transform="matrix(0.08776497,0,0,0.09066208,2.2777504,96.500682)"
         d="m 264.96369,76.283081 c 4.95339,0 10.60729,26.701029 14.61467,29.612559 4.00737,2.91153 31.14871,0.0376 32.67939,4.7486 1.53069,4.71095 -22.11635,18.3392 -23.64703,23.05016 -1.53068,4.71095 9.58968,29.63582 5.58231,32.54735 -4.00738,2.91153 -24.27596,-15.36678 -29.22935,-15.36678 -4.95339,0 -25.22196,18.27831 -29.22934,15.36678 -4.00738,-2.91153 7.11299,-27.8364 5.58231,-32.54735 -1.53068,-4.71096 -25.17772,-18.33921 -23.64704,-23.05017 1.53069,-4.71095 28.67203,-1.83706 32.6794,-4.74859 4.00738,-2.91153 9.66128,-29.612559 14.61468,-29.612559 z" />
      <path
         style="fill:#ffffff;fill-opacity:1;stroke:#cc781c;stroke-width:7.34348;stroke-miterlimit:4;stroke-dasharray:none;stroke-opacity:1"
         id="path1312-8-8-6-8-8-1-4-7-1-7-8-6-8-0"
         transform="matrix(0.08776497,0,0,0.09066208,-7.8703634,96.500682)"
         d="m 264.96369,76.283081 c 4.95339,0 10.60729,26.701029 14.61467,29.612559 4.00737,2.91153 31.14871,0.0376 32.67939,4.7486 1.53069,4.71095 -22.11635,18.3392 -23.64703,23.05016 -1.53068,4.71095 9.58968,29.63582 5.58231,32.54735 -4.00738,2.91153 -24.27596,-15.36678 -29.22935,-15.36678 -4.95339,0 -25.22196,18.27831 -29.22934,15.36678 -4.00738,-2.91153 7.11299,-27.8364 5.58231,-32.54735 -1.53068,-4.71096 -25.17772,-18.33921 -23.64704,-23.05017 1.53069,-4.71095 28.67203,-1.83706 32.6794,-4.74859 4.00738,-2.91153 9.66128,-29.612559 14.61468,-29.612559 z" />
      <path
         style="fill:#ffffff;fill-opacity:1;stroke:#cc781c;stroke-width:7.34348;stroke-miterlimit:4;stroke-dasharray:none;stroke-opacity:1"
         id="path1312-8-8-6-8-8-1-4-7-1-7-8-6-8-0-0"
         transform="matrix(0.08776497,0,0,0.09066208,-18.01866,96.500608)"
         d="m 264.96369,76.283081 c 4.95339,0 10.60729,26.701029 14.61467,29.612559 4.00737,2.91153 31.14871,0.0376 32.67939,4.7486 1.53069,4.71095 -22.11635,18.3392 -23.64703,23.05016 -1.53068,4.71095 9.58968,29.63582 5.58231,32.54735 -4.00738,2.91153 -24.27596,-15.36678 -29.22935,-15.36678 -4.95339,0 -25.22196,18.27831 -29.22934,15.36678 -4.00738,-2.91153 7.11299,-27.8364 5.58231,-32.54735 -1.53068,-4.71096 -25.17772,-18.33921 -23.64704,-23.05017 1.53069,-4.71095 28.67203,-1.83706 32.6794,-4.74859 4.00738,-2.91153 9.66128,-29.612559 14.61468,-29.612559 z" />
    </g>
  </g>
</svg>
