<?xml version="1.0" encoding="UTF-8" standalone="no"?>
<!-- Created with Inkscape (http://www.inkscape.org/) -->

<svg
   width="49.554401mm"
   height="8.9386692mm"
   viewBox="0 0 49.554402 8.9386695"
   version="1.1"
   id="svg5"
   xmlns="http://www.w3.org/2000/svg"
   xmlns:svg="http://www.w3.org/2000/svg">
  <defs
     id="defs2" />
  <g
     id="layer1"
     transform="translate(-4.9771014e-7,-30.925112)">
    <g
       id="g11201"
       transform="translate(0,-0.44391468)">
      <path
         style="fill:#ffb415;fill-opacity:1;stroke:#cc781c;stroke-width:7.34348;stroke-miterlimit:4;stroke-dasharray:none;stroke-opacity:1"
         id="path1312-7-1"
         transform="matrix(0.08776497,0,0,0.09066208,-18.773555,24.785931)"
         d="m 264.96369,76.283081 c 4.95339,0 10.60729,26.701029 14.61467,29.612559 4.00737,2.91153 31.14871,0.0376 32.67939,4.7486 1.53069,4.71095 -22.11635,18.3392 -23.64703,23.05016 -1.53068,4.71095 9.58968,29.63582 5.58231,32.54735 -4.00738,2.91153 -24.27596,-15.36678 -29.22935,-15.36678 -4.95339,0 -25.22196,18.27831 -29.22934,15.36678 -4.00738,-2.91153 7.11299,-27.8364 5.58231,-32.54735 -1.53068,-4.71096 -25.17772,-18.33921 -23.64704,-23.05017 1.53069,-4.71095 28.67203,-1.83706 32.6794,-4.74859 4.00738,-2.91153 9.66128,-29.612559 14.61468,-29.612559 z" />
      <path
         style="fill:#ffb415;fill-opacity:1;stroke:#cc781c;stroke-width:7.34348;stroke-miterlimit:4;stroke-dasharray:none;stroke-opacity:1"
         id="path1312-8-87-5"
         transform="matrix(0.08776497,0,0,0.09066208,-8.6254405,24.785931)"
         d="m 264.96369,76.283081 c 4.95339,0 10.60729,26.701029 14.61467,29.612559 4.00737,2.91153 31.14871,0.0376 32.67939,4.7486 1.53069,4.71095 -22.11635,18.3392 -23.64703,23.05016 -1.53068,4.71095 9.58968,29.63582 5.58231,32.54735 -4.00738,2.91153 -24.27596,-15.36678 -29.22935,-15.36678 -4.95339,0 -25.22196,18.27831 -29.22934,15.36678 -4.00738,-2.91153 7.11299,-27.8364 5.58231,-32.54735 -1.53068,-4.71096 -25.17772,-18.33921 -23.64704,-23.05017 1.53069,-4.71095 28.67203,-1.83706 32.6794,-4.74859 4.00738,-2.91153 9.66128,-29.612559 14.61468,-29.612559 z" />
      <path
         style="fill:#ffb415;fill-opacity:1;stroke:#cc781c;stroke-width:7.34348;stroke-miterlimit:4;stroke-dasharray:none;stroke-opacity:1"
         id="path1312-8-2-7-3"
         transform="matrix(0.08776497,0,0,0.09066208,1.5226736,24.785931)"
         d="m 264.96369,76.283081 c 4.95339,0 10.60729,26.701029 14.61467,29.612559 4.00737,2.91153 31.14871,0.0376 32.67939,4.7486 1.53069,4.71095 -22.11635,18.3392 -23.64703,23.05016 -1.53068,4.71095 9.58968,29.63582 5.58231,32.54735 -4.00738,2.91153 -24.27596,-15.36678 -29.22935,-15.36678 -4.95339,0 -25.22196,18.27831 -29.22934,15.36678 -4.00738,-2.91153 7.11299,-27.8364 5.58231,-32.54735 -1.53068,-4.71096 -25.17772,-18.33921 -23.64704,-23.05017 1.53069,-4.71095 28.67203,-1.83706 32.6794,-4.74859 4.00738,-2.91153 9.66128,-29.612559 14.61468,-29.612559 z" />
      <path
         style="fill:#ffffff;fill-opacity:1;stroke:#cc781c;stroke-width:7.34348;stroke-miterlimit:4;stroke-dasharray:none;stroke-opacity:1"
         id="path1312-8-8-6-8"
         transform="matrix(0.08776497,0,0,0.09066208,21.818899,24.785931)"
         d="m 264.96369,76.283081 c 4.95339,0 10.60729,26.701029 14.61467,29.612559 4.00737,2.91153 31.14871,0.0376 32.67939,4.7486 1.53069,4.71095 -22.11635,18.3392 -23.64703,23.05016 -1.53068,4.71095 9.58968,29.63582 5.58231,32.54735 -4.00738,2.91153 -24.27596,-15.36678 -29.22935,-15.36678 -4.95339,0 -25.22196,18.27831 -29.22934,15.36678 -4.00738,-2.91153 7.11299,-27.8364 5.58231,-32.54735 -1.53068,-4.71096 -25.17772,-18.33921 -23.64704,-23.05017 1.53069,-4.71095 28.67203,-1.83706 32.6794,-4.74859 4.00738,-2.91153 9.66128,-29.612559 14.61468,-29.612559 z" />
      <g
         id="g9089"
         transform="translate(-26.811008,17.219647)">
        <path
           style="fill:#ffb415;fill-opacity:1;stroke:#cc781c;stroke-width:7.3429;stroke-miterlimit:4;stroke-dasharray:none;stroke-opacity:1"
           id="path1312-8-8-6-9"
           transform="matrix(0.08776497,0,0,0.09066208,38.481974,7.6530198)"
           d="m 264.96369,76.283081 c 4.95339,0 10.60729,26.701029 14.61467,29.612559 4.00737,2.91153 31.14871,0.0376 32.67939,4.7486 1.53069,4.71095 -22.11635,18.3392 -23.64703,23.05016 -1.53068,4.71095 9.58968,29.63582 5.58231,32.54735 -4.00738,2.91153 -24.27596,-15.36678 -29.22935,-15.36678 -4.95339,0 -25.22196,18.27831 -29.22934,15.36678 -4.00738,-2.91153 7.11299,-27.8364 5.58231,-32.54735 -1.53068,-4.71096 -25.17772,-18.33921 -23.64704,-23.05017 1.53069,-4.71095 28.67203,-1.83706 32.6794,-4.74859 4.00738,-2.91153 9.66128,-29.612559 14.61468,-29.612559 z" />
        <path
           id="path7489-5"
           style="fill:#ffffff;fill-opacity:1;stroke:#cc781c;stroke-width:0.655;stroke-linecap:round;stroke-miterlimit:4;stroke-dasharray:none;stroke-opacity:1"
           d="m 61.736323,21.331824 c 0.434735,0 2.214028,1.657162 2.565736,1.393197 0.351708,-0.263966 -0.62475,-2.524137 -0.49041,-2.951242 0.134342,-0.427104 2.210183,-1.662173 2.075844,-2.089278 -0.134342,-0.427105 -2.516852,-0.167016 -2.86856,-0.430981 -0.351708,-0.263965 -0.847875,-2.684591 -1.28261,-2.684591" />
      </g>
    </g>
  </g>
</svg>
