<?xml version="1.0" encoding="UTF-8" standalone="no"?>
<!-- Created with Inkscape (http://www.inkscape.org/) -->

<svg
   width="29.258175mm"
   height="8.9386692mm"
   viewBox="0 0 29.258175 8.9386692"
   version="1.1"
   id="svg5"
   inkscape:version="1.1 (c68e22c387, 2021-05-23)"
   sodipodi:docname="Star Set.svg"
   xmlns:inkscape="http://www.inkscape.org/namespaces/inkscape"
   xmlns:sodipodi="http://sodipodi.sourceforge.net/DTD/sodipodi-0.dtd"
   xmlns="http://www.w3.org/2000/svg"
   xmlns:svg="http://www.w3.org/2000/svg">
  <sodipodi:namedview
     id="namedview7"
     pagecolor="#ffffff"
     bordercolor="#999999"
     borderopacity="1"
     inkscape:pageshadow="0"
     inkscape:pageopacity="0"
     inkscape:pagecheckerboard="0"
     inkscape:document-units="mm"
     showgrid="false"
     width="100mm"
     inkscape:zoom="2.8284272"
     inkscape:cx="10.253048"
     inkscape:cy="94.929083"
     inkscape:window-width="1920"
     inkscape:window-height="1009"
     inkscape:window-x="-8"
     inkscape:window-y="-8"
     inkscape:window-maximized="1"
     inkscape:current-layer="layer1" />
  <defs
     id="defs2">
    <inkscape:path-effect
       effect="spiro"
       id="path-effect7385"
       is_visible="true"
       lpeversion="1" />
    <inkscape:path-effect
       effect="spiro"
       id="path-effect6657"
       is_visible="true"
       lpeversion="1" />
    <inkscape:path-effect
       effect="spiro"
       id="path-effect6062"
       is_visible="true"
       lpeversion="1" />
  </defs>
  <g
     inkscape:label="Layer 1"
     inkscape:groupmode="layer"
     id="layer1">
    <g
       id="g1477"
       transform="translate(-20.296229)">
      <path
         sodipodi:type="star"
         style="fill:#ffb415;fill-opacity:1;stroke:#cc781c;stroke-width:7.34348;stroke-miterlimit:4;stroke-dasharray:none;stroke-opacity:1"
         id="path1312-8-2-7-3"
         inkscape:flatsided="false"
         sodipodi:sides="5"
         sodipodi:cx="264.96368"
         sodipodi:cy="126.01101"
         sodipodi:r1="49.727928"
         sodipodi:r2="24.863964"
         sodipodi:arg1="-1.5707963"
         sodipodi:arg2="-0.9424778"
         inkscape:rounded="0.15"
         inkscape:randomized="0"
         transform="matrix(0.08776497,0,0,0.09066208,1.5226731,-6.583095)"
         inkscape:transform-center-y="-0.43051787"
         inkscape:transform-center-x="-1.6671265e-06"
         d="m 264.96369,76.283081 c 4.95339,0 10.60729,26.701029 14.61467,29.612559 4.00737,2.91153 31.14871,0.0376 32.67939,4.7486 1.53069,4.71095 -22.11635,18.3392 -23.64703,23.05016 -1.53068,4.71095 9.58968,29.63582 5.58231,32.54735 -4.00738,2.91153 -24.27596,-15.36678 -29.22935,-15.36678 -4.95339,0 -25.22196,18.27831 -29.22934,15.36678 -4.00738,-2.91153 7.11299,-27.8364 5.58231,-32.54735 -1.53068,-4.71096 -25.17772,-18.33921 -23.64704,-23.05017 1.53069,-4.71095 28.67203,-1.83706 32.6794,-4.74859 4.00738,-2.91153 9.66128,-29.612559 14.61468,-29.612559 z" />
      <path
         sodipodi:type="star"
         style="fill:#ffffff;fill-opacity:1;stroke:#cc781c;stroke-width:7.34348;stroke-miterlimit:4;stroke-dasharray:none;stroke-opacity:1"
         id="path1312-8-8-6-8"
         inkscape:flatsided="false"
         sodipodi:sides="5"
         sodipodi:cx="264.96368"
         sodipodi:cy="126.01101"
         sodipodi:r1="49.727928"
         sodipodi:r2="24.863964"
         sodipodi:arg1="-1.5707963"
         sodipodi:arg2="-0.9424778"
         inkscape:rounded="0.15"
         inkscape:randomized="0"
         transform="matrix(0.08776497,0,0,0.09066208,21.818899,-6.583095)"
         inkscape:transform-center-y="-0.43051787"
         d="m 264.96369,76.283081 c 4.95339,0 10.60729,26.701029 14.61467,29.612559 4.00737,2.91153 31.14871,0.0376 32.67939,4.7486 1.53069,4.71095 -22.11635,18.3392 -23.64703,23.05016 -1.53068,4.71095 9.58968,29.63582 5.58231,32.54735 -4.00738,2.91153 -24.27596,-15.36678 -29.22935,-15.36678 -4.95339,0 -25.22196,18.27831 -29.22934,15.36678 -4.00738,-2.91153 7.11299,-27.8364 5.58231,-32.54735 -1.53068,-4.71096 -25.17772,-18.33921 -23.64704,-23.05017 1.53069,-4.71095 28.67203,-1.83706 32.6794,-4.74859 4.00738,-2.91153 9.66128,-29.612559 14.61468,-29.612559 z" />
      <g
         id="g9089"
         transform="translate(-26.811008,-14.149379)">
        <path
           sodipodi:type="star"
           style="fill:#ffb415;fill-opacity:1;stroke:#cc781c;stroke-width:7.3429;stroke-miterlimit:4;stroke-dasharray:none;stroke-opacity:1"
           id="path1312-8-8-6-9"
           inkscape:flatsided="false"
           sodipodi:sides="5"
           sodipodi:cx="264.96368"
           sodipodi:cy="126.01101"
           sodipodi:r1="49.727928"
           sodipodi:r2="24.863964"
           sodipodi:arg1="-1.5707963"
           sodipodi:arg2="-0.9424778"
           inkscape:rounded="0.15"
           inkscape:randomized="0"
           transform="matrix(0.08776497,0,0,0.09066208,38.481974,7.6530198)"
           inkscape:transform-center-y="-0.43051787"
           d="m 264.96369,76.283081 c 4.95339,0 10.60729,26.701029 14.61467,29.612559 4.00737,2.91153 31.14871,0.0376 32.67939,4.7486 1.53069,4.71095 -22.11635,18.3392 -23.64703,23.05016 -1.53068,4.71095 9.58968,29.63582 5.58231,32.54735 -4.00738,2.91153 -24.27596,-15.36678 -29.22935,-15.36678 -4.95339,0 -25.22196,18.27831 -29.22934,15.36678 -4.00738,-2.91153 7.11299,-27.8364 5.58231,-32.54735 -1.53068,-4.71096 -25.17772,-18.33921 -23.64704,-23.05017 1.53069,-4.71095 28.67203,-1.83706 32.6794,-4.74859 4.00738,-2.91153 9.66128,-29.612559 14.61468,-29.612559 z" />
        <path
           id="path7489-5"
           style="fill:#ffffff;fill-opacity:1;stroke:#cc781c;stroke-width:0.655;stroke-linecap:round;stroke-miterlimit:4;stroke-dasharray:none;stroke-opacity:1"
           inkscape:transform-center-y="-0.43051787"
           d="m 61.736323,21.331824 c 0.434735,0 2.214028,1.657162 2.565736,1.393197 0.351708,-0.263966 -0.62475,-2.524137 -0.49041,-2.951242 0.134342,-0.427104 2.210183,-1.662173 2.075844,-2.089278 -0.134342,-0.427105 -2.516852,-0.167016 -2.86856,-0.430981 -0.351708,-0.263965 -0.847875,-2.684591 -1.28261,-2.684591"
           sodipodi:nodetypes="cssssc" />
      </g>
    </g>
  </g>
</svg>
