<?xml version="1.0" encoding="UTF-8" standalone="no"?>
<!-- Created with Inkscape (http://www.inkscape.org/) -->

<svg
   width="820"
   height="312"
   viewBox="0 0 216.95833 82.550004"
   version="1.1"
   id="svg5"
   inkscape:version="1.1 (c68e22c387, 2021-05-23)"
   sodipodi:docname="Logo Facebook Banner.svg"
   inkscape:export-filename="C:\Users\jorje\Google Drive\Side Project\Branding\Graphics\Logo v1\Logo Facebook Banner.png"
   inkscape:export-xdpi="200"
   inkscape:export-ydpi="200"
   xmlns:inkscape="http://www.inkscape.org/namespaces/inkscape"
   xmlns:sodipodi="http://sodipodi.sourceforge.net/DTD/sodipodi-0.dtd"
   xmlns:xlink="http://www.w3.org/1999/xlink"
   xmlns="http://www.w3.org/2000/svg"
   xmlns:svg="http://www.w3.org/2000/svg">
  <sodipodi:namedview
     id="namedview7"
     pagecolor="#ffffff"
     bordercolor="#999999"
     borderopacity="1"
     inkscape:pageshadow="0"
     inkscape:pageopacity="0"
     inkscape:pagecheckerboard="0"
     inkscape:document-units="mm"
     showgrid="false"
     inkscape:zoom="1.0230034"
     inkscape:cx="425.21853"
     inkscape:cy="355.32629"
     inkscape:window-width="1920"
     inkscape:window-height="1017"
     inkscape:window-x="-8"
     inkscape:window-y="-8"
     inkscape:window-maximized="1"
     inkscape:current-layer="layer3"
     fit-margin-top="0"
     fit-margin-left="0"
     fit-margin-right="0"
     fit-margin-bottom="0"
     units="px"
     width="820px"
     height="312px" />
  <defs
     id="defs2">
    <inkscape:path-effect
       effect="spiro"
       id="path-effect874"
       is_visible="true"
       lpeversion="1" />
    <inkscape:path-effect
       effect="fillet_chamfer"
       id="path-effect3622"
       is_visible="true"
       lpeversion="1"
       satellites_param="F,0,1,1,0,9.1631394,0,1 @ F,0,1,1,0,9.1631394,0,1 @ F,0,1,1,0,9.1631394,0,1 @ F,0,1,1,0,9.1631394,0,1 @ F,0,1,1,0,9.1631394,0,1 @ F,0,1,1,0,9.1631394,0,1 @ F,0,0,1,0,0,0,1 @ F,0,0,1,0,0,0,1 @ F,0,0,1,0,9.1631394,0,1 @ F,0,1,1,0,9.1631394,0,1"
       unit="px"
       method="auto"
       mode="F"
       radius="0"
       chamfer_steps="1"
       flexible="false"
       use_knot_distance="true"
       apply_no_radius="true"
       apply_with_radius="true"
       only_selected="false"
       hide_knots="false" />
    <inkscape:path-effect
       effect="fillet_chamfer"
       id="path-effect3468"
       is_visible="true"
       lpeversion="1"
       satellites_param="F,0,0,1,0,0,0,1 @ F,0,0,1,0,0,0,1 @ F,0,0,1,0,0,0,1 @ F,0,0,1,0,0,0,1 @ F,0,0,1,0,0,0,1 @ F,0,0,1,0,0,0,1 @ F,0,0,1,0,0,0,1 @ F,0,0,1,0,0,0,1 @ F,0,0,1,0,0,0,1 @ F,0,0,1,0,0,0,1"
       unit="px"
       method="auto"
       mode="F"
       radius="20"
       chamfer_steps="1"
       flexible="false"
       use_knot_distance="true"
       apply_no_radius="true"
       apply_with_radius="true"
       only_selected="false"
       hide_knots="false" />
    <inkscape:path-effect
       effect="fillet_chamfer"
       id="path-effect2514"
       is_visible="true"
       lpeversion="1"
       satellites_param="F,0,0,1,0,0,0,1 @ F,0,0,1,0,0,0,1 @ F,0,0,1,0,0,0,1 @ F,0,0,1,0,0,0,1 @ F,0,0,1,0,0,0,1 @ F,0,0,1,0,0,0,1 @ F,0,0,1,0,0,0,1"
       unit="px"
       method="auto"
       mode="F"
       radius="20"
       chamfer_steps="1"
       flexible="false"
       use_knot_distance="true"
       apply_no_radius="true"
       apply_with_radius="true"
       only_selected="false"
       hide_knots="false" />
  </defs>
  <g
     inkscape:groupmode="layer"
     id="layer5"
     inkscape:label="Background">
    <rect
       style="fill:#f1f4f8;fill-opacity:1;stroke:none;stroke-width:7.50001"
       id="rect1111"
       width="348.63846"
       height="174.8365"
       x="-62.072132"
       y="-33.622406" />
    <text
       xml:space="preserve"
       style="font-size:7.4039px;line-height:1.25;font-family:fut;-inkscape-font-specification:fut;letter-spacing:0px;word-spacing:0px;stroke-width:0.185098"
       x="118.7907"
       y="47.301064"
       id="text2243"><tspan
         sodipodi:role="line"
         style="font-style:normal;font-variant:normal;font-weight:normal;font-stretch:normal;font-family:'Varela Round';-inkscape-font-specification:'Varela Round';text-align:center;text-anchor:middle;fill:#3b3355;fill-opacity:1;stroke-width:0.185098"
         x="118.7907"
         y="47.301064"
         id="tspan19339" /></text>
  </g>
  <g
     inkscape:groupmode="layer"
     id="layer3"
     inkscape:label="Text"
     transform="translate(2.3675475,6.974561)">
    <g
       id="g9020">
      <text
         xml:space="preserve"
         style="font-size:9.68229px;line-height:1.25;font-family:fut;-inkscape-font-specification:fut;letter-spacing:0px;word-spacing:0px;stroke-width:0.242058"
         x="122.14116"
         y="46.675312"
         id="text2243-1"
         transform="translate(-2.3675475,-6.974561)"><tspan
           sodipodi:role="line"
           style="font-style:normal;font-variant:normal;font-weight:normal;font-stretch:normal;font-family:'Varela Round';-inkscape-font-specification:'Varela Round';text-align:center;text-anchor:middle;fill:#3b3355;fill-opacity:1;stroke-width:0.242058"
           x="122.14116"
           y="46.675312"
           id="tspan19339-0">Repairs Made Easier</tspan></text>
      <g
         aria-label="Good As New"
         transform="matrix(0.26091627,0,0,0.27547304,34.780127,6.1751724)"
         id="text4549"
         style="font-size:63.0649px;line-height:1.25;font-family:fut;-inkscape-font-specification:fut;letter-spacing:0px;word-spacing:0px;fill:#5d5d81;stroke-width:1.57664"
         inkscape:export-filename="C:\Users\jorje\Google Drive\Side Project\Branding\Graphics\Logo v1\Logo Facebook Banner.png"
         inkscape:export-xdpi="80.080002"
         inkscape:export-ydpi="80.080002">
        <g
           id="g15175">
          <path
             style="font-family:'Varela Round';-inkscape-font-specification:'Varela Round';stroke-width:5.95895"
             sodipodi:type="inkscape:offset"
             inkscape:radius="0"
             inkscape:original="M 279.94727 33.898438 C 279.14846 33.898438 278.45384 34.170232 277.86523 34.716797 C 277.31867 35.263359 277.04492 35.957961 277.04492 36.798828 L 277.04492 52.25 C 273.97574 49.054713 270.38195 47.457031 266.26172 47.457031 C 263.65503 47.457031 261.17473 48.129224 258.82031 49.474609 C 256.50793 50.77795 254.61604 52.712705 253.14453 55.277344 C 251.71506 57.799942 251 60.762463 251 64.167969 C 251 67.573473 251.71506 70.558407 253.14453 73.123047 C 254.61604 75.645642 256.50793 77.580396 258.82031 78.925781 C 261.17473 80.229121 263.65503 80.880859 266.26172 80.880859 C 270.38195 80.880859 273.97574 79.283179 277.04492 76.087891 L 277.04492 77.728516 C 277.04492 78.527341 277.31867 79.199532 277.86523 79.746094 C 278.45384 80.292656 279.14846 80.566406 279.94727 80.566406 C 280.74609 80.566406 281.41828 80.292656 281.96484 79.746094 C 282.51139 79.199532 282.78516 78.527341 282.78516 77.728516 L 282.78516 36.798828 C 282.78516 36.000005 282.51139 35.327813 281.96484 34.78125 C 281.41828 34.192644 280.74609 33.898438 279.94727 33.898438 z M 152.22266 35.599609 C 148.14447 35.599609 144.42401 36.547506 141.06055 38.439453 C 137.73913 40.3314 135.11172 42.999718 133.17773 46.447266 C 131.24374 49.894814 130.27734 53.846148 130.27734 58.302734 C 130.27734 62.675235 131.20088 66.585655 133.05078 70.033203 C 134.90069 73.438707 137.50763 76.108981 140.87109 78.042969 C 144.23455 79.934916 148.08165 80.880859 152.41211 80.880859 C 157.33117 80.880859 162.14467 79.704029 166.85352 77.349609 C 167.56825 77.013262 168.1362 76.508631 168.55664 75.835938 C 169.01911 75.121201 169.25 74.322361 169.25 73.439453 L 169.25 59.123047 C 169.25 58.282181 168.9558 57.567123 168.36719 56.978516 C 167.77859 56.38991 167.06353 56.097656 166.22266 56.097656 L 153.79883 56.097656 C 153.08409 56.097656 152.47521 56.348996 151.9707 56.853516 C 151.46618 57.358034 151.21484 57.966907 151.21484 58.681641 C 151.21484 59.396378 151.46618 60.007198 151.9707 60.511719 C 152.47521 61.016237 153.08409 61.267578 153.79883 61.267578 L 164.20508 61.267578 L 164.20508 72.683594 C 160.79958 74.533497 157.12198 75.457031 153.16992 75.457031 C 149.63828 75.457031 146.56763 74.721515 143.96094 73.25 C 141.3963 71.736443 139.42062 69.697452 138.0332 67.132812 C 136.68781 64.526132 136.01562 61.58211 136.01562 58.302734 C 136.01562 54.729056 136.73069 51.660343 138.16016 49.095703 C 139.63167 46.489022 141.64825 44.513354 144.21289 43.167969 C 146.77753 41.822585 149.65824 41.150391 152.85352 41.150391 C 155.1659 41.150391 157.31108 41.444599 159.28711 42.033203 C 161.26315 42.621809 163.23881 43.50443 165.21484 44.681641 C 165.63527 44.891857 166.07658 44.998047 166.53906 44.998047 C 167.33788 44.998047 167.96917 44.744752 168.43164 44.240234 C 168.93616 43.735714 169.1875 43.126845 169.1875 42.412109 C 169.1875 41.907591 169.06085 41.44387 168.80859 41.023438 C 168.55633 40.603006 168.26212 40.308797 167.92578 40.140625 C 165.65544 38.711154 163.28133 37.597648 160.80078 36.798828 C 158.36227 36.000005 155.50204 35.599609 152.22266 35.599609 z M 326.2832 35.916016 C 325.4003 35.916016 324.64432 36.167357 324.01367 36.671875 C 323.42506 37.134351 322.9633 37.745174 322.62695 38.501953 L 306.54492 76.466797 C 306.33471 76.971315 306.22852 77.392172 306.22852 77.728516 C 306.22852 78.527341 306.4818 79.199532 306.98633 79.746094 C 307.53288 80.292656 308.22553 80.566406 309.06641 80.566406 C 309.65499 80.566406 310.18204 80.417349 310.64453 80.123047 C 311.14903 79.786698 311.52703 79.347343 311.7793 78.800781 L 315.87891 68.960938 L 337.32031 68.960938 L 341.41992 78.800781 C 341.67218 79.347343 342.02773 79.786698 342.49023 80.123047 C 342.99475 80.417349 343.54228 80.566406 344.13086 80.566406 C 344.97174 80.566406 345.64392 80.292656 346.14844 79.746094 C 346.695 79.199532 346.96875 78.527341 346.96875 77.728516 C 346.96875 77.392172 346.86453 76.971315 346.6543 76.466797 L 330.57227 38.501953 C 330.23592 37.745174 329.75176 37.134351 329.12109 36.671875 C 328.53251 36.167357 327.79697 35.916016 326.91406 35.916016 L 326.2832 35.916016 z M 404.83203 35.916016 C 403.69686 35.916016 402.72851 36.336867 401.92969 37.177734 C 401.13087 37.976556 400.73242 38.942956 400.73242 40.078125 L 400.73242 77.728516 C 400.73242 78.527341 401.00618 79.199532 401.55273 79.746094 C 402.09929 80.292656 402.77149 80.566406 403.57031 80.566406 C 404.36915 80.566406 405.04133 80.292656 405.58789 79.746094 C 406.1765 79.199532 406.4707 78.527341 406.4707 77.728516 L 406.4707 43.609375 L 430.87695 78.863281 C 431.25536 79.367799 431.73954 79.786698 432.32812 80.123047 C 432.91674 80.417349 433.54608 80.566406 434.21875 80.566406 L 434.97656 80.566406 C 436.11173 80.566406 437.07813 80.166008 437.87695 79.367188 C 438.71782 78.568365 439.13867 77.601963 439.13867 76.466797 L 439.13867 38.816406 C 439.13867 38.017583 438.84447 37.34539 438.25586 36.798828 C 437.70927 36.210221 437.0371 35.916016 436.23828 35.916016 C 435.43947 35.916016 434.76534 36.210221 434.21875 36.798828 C 433.6722 37.34539 433.40039 38.017583 433.40039 38.816406 L 433.40039 72.871094 L 409.11914 37.808594 C 408.15215 36.547296 406.99774 35.916016 405.65234 35.916016 L 404.83203 35.916016 z M 326.59961 43.230469 L 335.11328 63.726562 L 318.08594 63.726562 L 326.59961 43.230469 z M 192.63281 47.457031 C 189.39548 47.457031 186.55766 48.149682 184.11914 49.537109 C 181.68064 50.924538 179.78874 52.902157 178.44336 55.466797 C 177.14002 57.989392 176.48828 60.888594 176.48828 64.167969 C 176.48828 67.447343 177.14002 70.370908 178.44336 72.935547 C 179.78874 75.458145 181.68064 77.413352 184.11914 78.800781 C 186.55766 80.188207 189.39548 80.880859 192.63281 80.880859 C 195.8281 80.880859 198.64548 80.188207 201.08398 78.800781 C 203.5225 77.413352 205.41439 75.458145 206.75977 72.935547 C 208.10516 70.370908 208.77734 67.447343 208.77734 64.167969 C 208.77734 60.888594 208.10516 57.989392 206.75977 55.466797 C 205.41439 52.902157 203.5225 50.924538 201.08398 49.537109 C 198.64548 48.149682 195.8281 47.457031 192.63281 47.457031 z M 229.88867 47.457031 C 226.65134 47.457031 223.81351 48.149682 221.375 49.537109 C 218.93649 50.924538 217.04461 52.902157 215.69922 55.466797 C 214.39588 57.989392 213.74414 60.888594 213.74414 64.167969 C 213.74414 67.447343 214.39588 70.370908 215.69922 72.935547 C 217.04461 75.458145 218.93649 77.413352 221.375 78.800781 C 223.81351 80.188207 226.65134 80.880859 229.88867 80.880859 C 233.08396 80.880859 235.90133 80.188207 238.33984 78.800781 C 240.77835 77.413352 242.67024 75.458145 244.01562 72.935547 C 245.36102 70.370908 246.0332 67.447343 246.0332 64.167969 C 246.0332 60.888594 245.36101 57.989392 244.01562 55.466797 C 242.67023 52.902157 240.77835 50.924538 238.33984 49.537109 C 235.90133 48.149682 233.08396 47.457031 229.88867 47.457031 z M 364.42188 47.457031 C 360.46981 47.457031 357.42156 48.382516 355.27734 50.232422 C 353.17518 52.082324 352.125 54.478846 352.125 57.421875 C 352.125 59.524038 352.69297 61.225954 353.82812 62.529297 C 355.00536 63.790593 356.3926 64.736539 357.99023 65.367188 C 359.62993 65.997839 361.68935 66.606708 364.16992 67.195312 C 366.60843 67.825964 368.35322 68.393917 369.4043 68.898438 C 370.49741 69.402956 371.04492 70.138475 371.04492 71.105469 C 371.04492 74.090541 368.71171 75.583984 364.04492 75.583984 C 362.36317 75.583984 360.84929 75.416424 359.50391 75.080078 C 358.15851 74.743731 356.81217 74.280012 355.4668 73.691406 C 355.08839 73.523232 354.71041 73.439453 354.33203 73.439453 C 353.6173 73.439453 353.0289 73.690794 352.56641 74.195312 C 352.10394 74.699832 351.87305 75.288246 351.87305 75.960938 C 351.87305 76.843846 352.23055 77.538451 352.94531 78.042969 C 356.39284 79.934916 360.21756 80.880859 364.42188 80.880859 C 368.28985 80.880859 371.27675 79.998238 373.37891 78.232422 C 375.52313 76.466605 376.59375 74.237644 376.59375 71.546875 C 376.59375 69.360626 376.02578 67.61584 374.89062 66.3125 C 373.79751 65.009159 372.47357 64.063213 370.91797 63.474609 C 369.36239 62.843959 367.34384 62.214632 364.86328 61.583984 C 362.38274 61.037422 360.55415 60.469466 359.37695 59.880859 C 358.19972 59.292253 357.61133 58.366765 357.61133 57.105469 C 357.61133 55.802126 358.2426 54.751948 359.50391 53.953125 C 360.80726 53.112261 362.59294 52.691406 364.86328 52.691406 C 367.2177 52.691406 369.61422 53.069394 372.05273 53.826172 C 372.38908 53.910262 372.66285 53.953125 372.87305 53.953125 C 373.58778 53.953125 374.1762 53.69983 374.63867 53.195312 C 375.14319 52.690795 375.39648 52.10238 375.39648 51.429688 C 375.39648 50.92517 375.22697 50.440989 374.89062 49.978516 C 374.59632 49.516039 374.15502 49.201374 373.56641 49.033203 C 370.70746 47.98212 367.6592 47.457031 364.42188 47.457031 z M 461.38477 47.457031 C 458.06333 47.457031 455.26839 48.235415 452.99805 49.791016 C 450.72772 51.346616 449.04624 53.383655 447.95312 55.90625 C 446.85998 58.428845 446.3125 61.182895 446.3125 64.167969 C 446.3125 69.46542 447.74262 73.586269 450.60156 76.529297 C 453.50254 79.430282 457.51719 80.880859 462.64648 80.880859 C 465.16907 80.880859 467.22853 80.649977 468.82617 80.1875 C 470.4238 79.725024 472.0439 79.030422 473.68359 78.105469 C 474.77673 77.474819 475.32227 76.698387 475.32227 75.773438 C 475.32227 75.058701 475.07094 74.470286 474.56641 74.007812 C 474.06189 73.545337 473.47348 73.3125 472.80078 73.3125 C 472.38034 73.3125 472.00041 73.396279 471.66406 73.564453 C 470.40277 74.195104 469.10126 74.679279 467.75586 75.015625 C 466.45254 75.351969 464.9162 75.521484 463.15039 75.521484 C 459.82897 75.521484 457.24446 74.700234 455.39453 73.060547 C 453.54463 71.42086 452.45155 69.130527 452.11523 66.1875 L 473.49414 66.1875 C 474.37705 66.1875 475.06969 65.91375 475.57422 65.367188 C 476.1208 64.820626 476.39453 64.148431 476.39453 63.349609 C 476.39453 60.490667 475.80614 57.863262 474.62891 55.466797 C 473.45169 53.028287 471.72736 51.093534 469.45703 49.664062 C 467.18666 48.192548 464.49595 47.457031 461.38477 47.457031 z M 502.55078 47.771484 C 501.83605 47.771484 501.18431 47.981912 500.5957 48.402344 C 500.04914 48.822776 499.74591 49.433204 499.46094 50.042969 L 492.14648 73.753906 L 484.76758 49.474609 C 484.5994 48.970091 484.26234 48.569696 483.75781 48.275391 C 480.67157 47.124218 479.0311 49.908211 479.5332 51.681641 L 488.48828 77.917969 C 488.74051 78.674748 489.2023 79.304074 489.875 79.808594 C 490.5477 80.313112 491.30564 80.566406 492.14648 80.566406 C 492.98736 80.566406 493.74332 80.313112 494.41602 79.808594 C 495.08869 79.304074 495.57287 78.652338 495.86719 77.853516 L 502.55078 56.978516 L 509.23633 77.853516 C 509.53065 78.652338 510.0148 79.304074 510.6875 79.808594 C 511.36017 80.313112 512.11618 80.566406 512.95703 80.566406 C 513.7979 80.566406 514.55389 80.313112 515.22656 79.808594 C 515.89926 79.304074 516.36296 78.674748 516.61523 77.917969 L 525.57031 51.681641 C 525.69643 51.30325 525.75977 50.945721 525.75977 50.609375 C 525.75977 49.810555 525.48603 49.138361 524.93945 48.591797 C 524.39289 48.045234 523.72069 47.771484 522.92188 47.771484 C 522.33326 47.771484 521.78575 47.939048 521.28125 48.275391 C 520.81876 48.569696 520.50411 48.970091 520.33594 49.474609 L 512.95703 73.753906 L 505.64062 50.042969 C 505.43039 49.370277 505.03197 48.822776 504.44336 48.402344 C 503.89681 47.981912 503.26551 47.771484 502.55078 47.771484 z M 461.38477 52.3125 C 464.60896 52.416664 467.50733 54.037109 469.08008 56.349609 C 470.04707 57.737038 470.5926 59.459409 470.71875 61.519531 L 452.11523 61.519531 C 452.24135 59.459409 452.76645 57.737038 453.69141 56.349609 C 454.61635 54.962183 455.77273 53.952914 457.16016 53.322266 C 458.54759 52.649574 459.95528 52.3125 461.38477 52.3125 z M 192.63281 52.691406 C 199.73884 53.023204 202.99364 58.245866 203.03906 64.105469 C 203.03906 66.754197 202.51202 68.940288 201.46094 70.664062 C 200.45189 72.387835 199.14842 73.650396 197.55078 74.449219 C 195.99518 75.248041 194.35659 75.646484 192.63281 75.646484 C 190.86699 75.646484 189.18554 75.248041 187.58789 74.449219 C 186.03229 73.650396 184.74927 72.387835 183.74023 70.664062 C 182.73119 68.940287 182.22656 66.754197 182.22656 64.105469 C 182.22656 61.498788 182.73119 59.333148 183.74023 57.609375 C 184.74927 55.885602 186.03229 54.64545 187.58789 53.888672 C 189.18554 53.089849 190.86699 52.691406 192.63281 52.691406 z M 228.8125 52.816406 C 232.81885 52.481557 236.73158 54.29119 238.7168 57.609375 C 239.76788 59.333148 240.29492 61.498788 240.29492 64.105469 C 240.29492 66.754197 239.76788 68.940288 238.7168 70.664062 C 237.70776 72.387835 236.40428 73.650396 234.80664 74.449219 C 233.25104 75.248041 231.61244 75.646484 229.88867 75.646484 C 228.12286 75.646484 226.4414 75.248041 224.84375 74.449219 C 223.28815 73.650396 222.00513 72.387835 220.99609 70.664062 C 219.98705 68.940287 219.48242 66.754197 219.48242 64.105469 C 219.48242 61.498788 219.98705 59.333148 220.99609 57.609375 C 222.00513 55.885602 223.28815 54.64545 224.84375 53.888672 C 226.13201 53.276499 227.47705 52.928023 228.8125 52.816406 z M 267.08203 52.816406 C 271.11077 52.954493 274.63834 54.94417 277.04492 57.546875 L 277.04492 70.791016 C 275.74158 72.220487 274.22769 73.376855 272.50391 74.259766 C 270.82219 75.10063 269.01602 75.521484 267.08203 75.521484 C 263.97083 75.521484 261.46811 74.532676 259.57617 72.556641 C 257.68422 70.580608 256.73828 67.783689 256.73828 64.167969 C 256.73828 60.552247 257.68422 57.757283 259.57617 55.78125 C 261.46811 53.805217 263.97083 52.816406 267.08203 52.816406 z "
             xlink:href="#path15111"
             id="path15903"
             inkscape:href="#path15111"
             d="m 279.94727,33.898438 c -0.79881,0 -1.49343,0.271794 -2.08204,0.818359 -0.54656,0.546562 -0.82031,1.241164 -0.82031,2.082031 V 52.25 c -3.06918,-3.195287 -6.66297,-4.792969 -10.7832,-4.792969 -2.60669,0 -5.08699,0.672193 -7.44141,2.017578 -2.31238,1.303341 -4.20427,3.238096 -5.67578,5.802735 C 251.71506,57.799942 251,60.762463 251,64.167969 c 0,3.405504 0.71506,6.390438 2.14453,8.955078 1.47151,2.522595 3.3634,4.457349 5.67578,5.802734 2.35442,1.30334 4.83472,1.955078 7.44141,1.955078 4.12023,0 7.71402,-1.59768 10.7832,-4.792968 v 1.640625 c 0,0.798825 0.27375,1.471016 0.82031,2.017578 0.58861,0.546562 1.28323,0.820312 2.08204,0.820312 0.79882,0 1.47101,-0.27375 2.01757,-0.820312 0.54655,-0.546562 0.82032,-1.218753 0.82032,-2.017578 V 36.798828 c 0,-0.798823 -0.27377,-1.471015 -0.82032,-2.017578 -0.54656,-0.588606 -1.21875,-0.882812 -2.01757,-0.882812 z m -127.72461,1.701171 c -4.07819,0 -7.79865,0.947897 -11.16211,2.839844 -3.32142,1.891947 -5.94883,4.560265 -7.88282,8.007813 -1.93399,3.447548 -2.90039,7.398882 -2.90039,11.855468 0,4.372501 0.92354,8.282921 2.77344,11.730469 1.84991,3.405504 4.45685,6.075778 7.82031,8.009766 3.36346,1.891947 7.21056,2.83789 11.54102,2.83789 4.91906,0 9.73256,-1.17683 14.44141,-3.53125 0.71473,-0.336347 1.28268,-0.840978 1.70312,-1.513671 0.46247,-0.714737 0.69336,-1.513577 0.69336,-2.396485 V 59.123047 c 0,-0.840866 -0.2942,-1.555924 -0.88281,-2.144531 -0.5886,-0.588606 -1.30366,-0.88086 -2.14453,-0.88086 h -12.42383 c -0.71474,0 -1.32362,0.25134 -1.82813,0.75586 -0.50452,0.504518 -0.75586,1.113391 -0.75586,1.828125 0,0.714737 0.25134,1.325557 0.75586,1.830078 0.50451,0.504518 1.11339,0.755859 1.82813,0.755859 h 10.40625 v 11.416016 c -3.4055,1.849903 -7.0831,2.773437 -11.03516,2.773437 -3.53164,0 -6.60229,-0.735516 -9.20898,-2.207031 -2.56464,-1.513557 -4.54032,-3.552548 -5.92774,-6.117188 -1.34539,-2.60668 -2.01758,-5.550702 -2.01758,-8.830078 0,-3.573678 0.71507,-6.642391 2.14454,-9.207031 1.47151,-2.606681 3.48809,-4.582349 6.05273,-5.927734 2.56464,-1.345384 5.44535,-2.017578 8.64063,-2.017578 2.31238,0 4.45756,0.294208 6.43359,0.882812 1.97604,0.588606 3.9517,1.471227 5.92773,2.648438 0.42043,0.210216 0.86174,0.316406 1.32422,0.316406 0.79882,0 1.43011,-0.253295 1.89258,-0.757813 0.50452,-0.50452 0.75586,-1.113389 0.75586,-1.828125 0,-0.504518 -0.12665,-0.968239 -0.37891,-1.388671 -0.25226,-0.420432 -0.54647,-0.714641 -0.88281,-0.882813 -2.27034,-1.429471 -4.64445,-2.542977 -7.125,-3.341797 -2.43851,-0.798823 -5.29874,-1.199219 -8.57812,-1.199219 z m 174.06054,0.316407 c -0.8829,0 -1.63888,0.251341 -2.26953,0.755859 -0.58861,0.462476 -1.05037,1.073299 -1.38672,1.830078 l -16.08203,37.964844 c -0.21021,0.504518 -0.3164,0.925375 -0.3164,1.261719 0,0.798825 0.25328,1.471016 0.75781,2.017578 0.54655,0.546562 1.2392,0.820312 2.08008,0.820312 0.58858,0 1.11563,-0.149057 1.57812,-0.443359 0.5045,-0.336349 0.8825,-0.775704 1.13477,-1.322266 l 4.09961,-9.839843 h 21.4414 l 4.09961,9.839843 c 0.25226,0.546562 0.60781,0.985917 1.07031,1.322266 0.50452,0.294302 1.05205,0.443359 1.64063,0.443359 0.84088,0 1.51306,-0.27375 2.01758,-0.820312 0.54656,-0.546562 0.82031,-1.218753 0.82031,-2.017578 0,-0.336344 -0.10422,-0.757201 -0.31445,-1.261719 L 330.57227,38.501953 c -0.33635,-0.756779 -0.82051,-1.367602 -1.45118,-1.830078 -0.58858,-0.504518 -1.32412,-0.755859 -2.20703,-0.755859 z m 78.54883,0 c -1.13517,0 -2.10352,0.420851 -2.90234,1.261718 -0.79882,0.798822 -1.19727,1.765222 -1.19727,2.900391 v 37.650391 c 0,0.798825 0.27376,1.471016 0.82031,2.017578 0.54656,0.546562 1.21876,0.820312 2.01758,0.820312 0.79884,0 1.47102,-0.27375 2.01758,-0.820312 0.58861,-0.546562 0.88281,-1.218753 0.88281,-2.017578 V 43.609375 l 24.40625,35.253906 c 0.37841,0.504518 0.86259,0.923417 1.45117,1.259766 0.58862,0.294302 1.21796,0.443359 1.89063,0.443359 h 0.75781 c 1.13517,0 2.10157,-0.400398 2.90039,-1.199218 0.84087,-0.798823 1.26172,-1.765225 1.26172,-2.900391 V 38.816406 c 0,-0.798823 -0.2942,-1.471016 -0.88281,-2.017578 -0.54659,-0.588607 -1.21876,-0.882812 -2.01758,-0.882812 -0.79881,0 -1.47294,0.294205 -2.01953,0.882812 -0.54655,0.546562 -0.81836,1.218755 -0.81836,2.017578 v 34.054688 l -24.28125,-35.0625 c -0.96699,-1.261298 -2.1214,-1.892578 -3.4668,-1.892578 z m -78.23242,7.314453 8.51367,20.496093 h -17.02734 z m -133.9668,4.226562 c -3.23733,0 -6.07515,0.692651 -8.51367,2.080078 -2.4385,1.387429 -4.3304,3.365048 -5.67578,5.929688 -1.30334,2.522595 -1.95508,5.421797 -1.95508,8.701172 0,3.279374 0.65174,6.202939 1.95508,8.767578 1.34538,2.522598 3.23728,4.477805 5.67578,5.865234 2.43852,1.387426 5.27634,2.080078 8.51367,2.080078 3.19529,0 6.01267,-0.692652 8.45117,-2.080078 2.43852,-1.387429 4.33041,-3.342636 5.67579,-5.865234 1.34539,-2.564639 2.01757,-5.488204 2.01757,-8.767578 0,-3.279375 -0.67218,-6.178577 -2.01757,-8.701172 -1.34538,-2.56464 -3.23727,-4.542259 -5.67579,-5.929688 -2.4385,-1.387427 -5.25588,-2.080078 -8.45117,-2.080078 z m 37.25586,0 c -3.23733,0 -6.07516,0.692651 -8.51367,2.080078 -2.43851,1.387429 -4.33039,3.365048 -5.67578,5.929688 -1.30334,2.522595 -1.95508,5.421797 -1.95508,8.701172 0,3.279374 0.65174,6.202939 1.95508,8.767578 1.34539,2.522598 3.23727,4.477805 5.67578,5.865234 2.43851,1.387426 5.27634,2.080078 8.51367,2.080078 3.19529,0 6.01266,-0.692652 8.45117,-2.080078 2.43851,-1.387429 4.3304,-3.342636 5.67578,-5.865234 1.3454,-2.564639 2.01758,-5.488204 2.01758,-8.767578 0,-3.279375 -0.67219,-6.178577 -2.01758,-8.701172 -1.34539,-2.56464 -3.23727,-4.542259 -5.67578,-5.929688 -2.43851,-1.387427 -5.25588,-2.080078 -8.45117,-2.080078 z m 134.53321,0 c -3.95207,0 -7.00032,0.925485 -9.14454,2.775391 -2.10216,1.849902 -3.15234,4.246424 -3.15234,7.189453 0,2.102163 0.56797,3.804079 1.70312,5.107422 1.17724,1.261296 2.56448,2.207242 4.16211,2.837891 1.6397,0.630651 3.69912,1.23952 6.17969,1.828124 2.43851,0.630652 4.1833,1.198605 5.23438,1.703126 1.09311,0.504518 1.64062,1.240037 1.64062,2.207031 0,2.985072 -2.33321,4.478515 -7,4.478515 -1.68175,0 -3.19563,-0.16756 -4.54101,-0.503906 -1.3454,-0.336347 -2.69174,-0.800066 -4.03711,-1.388672 -0.37841,-0.168174 -0.75639,-0.251953 -1.13477,-0.251953 -0.71473,0 -1.30313,0.251341 -1.76562,0.755859 -0.46247,0.50452 -0.69336,1.092934 -0.69336,1.765626 0,0.882908 0.3575,1.577513 1.07226,2.082031 3.44753,1.891947 7.27225,2.83789 11.47657,2.83789 3.86797,0 6.85487,-0.882621 8.95703,-2.648437 2.14422,-1.765817 3.21484,-3.994778 3.21484,-6.685547 0,-2.186249 -0.56797,-3.931035 -1.70313,-5.234375 -1.09311,-1.303341 -2.41705,-2.249287 -3.97265,-2.837891 -1.55558,-0.63065 -3.57413,-1.259977 -6.05469,-1.890625 -2.48054,-0.546562 -4.30913,-1.114518 -5.48633,-1.703125 -1.17723,-0.588606 -1.76562,-1.514094 -1.76562,-2.77539 0,-1.303343 0.63127,-2.353521 1.89258,-3.152344 1.30335,-0.840864 3.08903,-1.261719 5.35937,-1.261719 2.35442,0 4.75094,0.377988 7.18945,1.134766 0.33635,0.08409 0.61012,0.126953 0.82032,0.126953 0.71473,0 1.30315,-0.253295 1.76562,-0.757813 0.50452,-0.504517 0.75781,-1.092932 0.75781,-1.765624 0,-0.504518 -0.16951,-0.988699 -0.50586,-1.451172 -0.2943,-0.462477 -0.7356,-0.777142 -1.32421,-0.945313 -2.85895,-1.051083 -5.90721,-1.576172 -9.14453,-1.576172 z m 96.96289,0 c -3.32144,0 -6.11638,0.778384 -8.38672,2.333985 -2.27033,1.5556 -3.95181,3.592639 -5.04493,6.115234 -1.09314,2.522595 -1.64062,5.276645 -1.64062,8.261719 0,5.297451 1.43012,9.4183 4.28906,12.361328 2.90098,2.900985 6.91563,4.351562 12.04492,4.351562 2.52259,0 4.58205,-0.230882 6.17969,-0.693359 1.59763,-0.462476 3.21773,-1.157078 4.85742,-2.082031 1.09314,-0.63065 1.63868,-1.407082 1.63868,-2.332031 0,-0.714737 -0.25133,-1.303152 -0.75586,-1.765626 -0.50452,-0.462475 -1.09293,-0.695312 -1.76563,-0.695312 -0.42044,0 -0.80037,0.08378 -1.13672,0.251953 -1.26129,0.630651 -2.5628,1.114826 -3.9082,1.451172 -1.30332,0.336344 -2.83966,0.505859 -4.60547,0.505859 -3.32142,0 -5.90593,-0.82125 -7.75586,-2.460937 -1.8499,-1.639687 -2.94298,-3.93002 -3.2793,-6.873047 h 21.37891 c 0.88291,0 1.57555,-0.27375 2.08008,-0.820312 0.54658,-0.546562 0.82031,-1.218757 0.82031,-2.017579 0,-2.858942 -0.58839,-5.486347 -1.76562,-7.882812 -1.17722,-2.43851 -2.90155,-4.373263 -5.17188,-5.802735 -2.27037,-1.471514 -4.96108,-2.207031 -8.07226,-2.207031 z m 41.16601,0.314453 c -0.71473,0 -1.36647,0.210428 -1.95508,0.63086 -0.54656,0.420432 -0.84979,1.03086 -1.13476,1.640625 l -7.31446,23.710937 -7.3789,-24.279297 c -0.16818,-0.504518 -0.50524,-0.904913 -1.00977,-1.199218 -3.08624,-1.151173 -4.72671,1.63282 -4.22461,3.40625 l 8.95508,26.236328 c 0.25223,0.756779 0.71402,1.386105 1.38672,1.890625 0.6727,0.504518 1.43064,0.757812 2.27148,0.757812 0.84088,0 1.59684,-0.253294 2.26954,-0.757812 0.67267,-0.50452 1.15685,-1.156256 1.45117,-1.955078 l 6.68359,-20.875 6.68555,20.875 c 0.29432,0.798822 0.77847,1.450558 1.45117,1.955078 0.67267,0.504518 1.42868,0.757812 2.26953,0.757812 0.84087,0 1.59686,-0.253294 2.26953,-0.757812 0.6727,-0.50452 1.1364,-1.133846 1.38867,-1.890625 l 8.95508,-26.236328 c 0.12612,-0.378391 0.18946,-0.73592 0.18946,-1.072266 0,-0.79882 -0.27374,-1.471014 -0.82032,-2.017578 -0.54656,-0.546563 -1.21876,-0.820313 -2.01757,-0.820313 -0.58862,0 -1.13613,0.167564 -1.64063,0.503907 -0.46249,0.294305 -0.77714,0.6947 -0.94531,1.199218 l -7.37891,24.279297 -7.31641,-23.710937 c -0.21023,-0.672692 -0.60865,-1.220193 -1.19726,-1.640625 -0.54655,-0.420432 -1.17785,-0.63086 -1.89258,-0.63086 z M 461.38477,52.3125 c 3.22419,0.104164 6.12256,1.724609 7.69531,4.037109 0.96699,1.387429 1.51252,3.1098 1.63867,5.169922 h -18.60352 c 0.12612,-2.060122 0.65122,-3.782493 1.57618,-5.169922 0.92494,-1.387426 2.08132,-2.396695 3.46875,-3.027343 1.38743,-0.672692 2.79512,-1.009766 4.22461,-1.009766 z m -268.75196,0.378906 c 7.10603,0.331798 10.36083,5.55446 10.40625,11.414063 0,2.648728 -0.52704,4.834819 -1.57812,6.558593 -1.00905,1.723773 -2.31252,2.986334 -3.91016,3.785157 -1.5556,0.798822 -3.19419,1.197265 -4.91797,1.197265 -1.76582,0 -3.44727,-0.398443 -5.04492,-1.197265 -1.5556,-0.798823 -2.83862,-2.061384 -3.84766,-3.785157 -1.00904,-1.723775 -1.51367,-3.909865 -1.51367,-6.558593 0,-2.606681 0.50463,-4.772321 1.51367,-6.496094 1.00904,-1.723773 2.29206,-2.963925 3.84766,-3.720703 1.59765,-0.798823 3.2791,-1.197266 5.04492,-1.197266 z m 36.17969,0.125 c 4.00635,-0.334849 7.91908,1.474784 9.9043,4.792969 1.05108,1.723773 1.57812,3.889413 1.57812,6.496094 0,2.648728 -0.52704,4.834819 -1.57812,6.558593 -1.00904,1.723773 -2.31252,2.986334 -3.91016,3.785157 -1.5556,0.798822 -3.1942,1.197265 -4.91797,1.197265 -1.76581,0 -3.44727,-0.398443 -5.04492,-1.197265 -1.5556,-0.798823 -2.83862,-2.061384 -3.84766,-3.785157 -1.00904,-1.723775 -1.51367,-3.909865 -1.51367,-6.558593 0,-2.606681 0.50463,-4.772321 1.51367,-6.496094 1.00904,-1.723773 2.29206,-2.963925 3.84766,-3.720703 1.28826,-0.612173 2.6333,-0.960649 3.96875,-1.072266 z m 38.26953,0 c 4.02874,0.138087 7.55631,2.127764 9.96289,4.730469 v 13.244141 c -1.30334,1.429471 -2.81723,2.585839 -4.54101,3.46875 -1.68172,0.840864 -3.48789,1.261718 -5.42188,1.261718 -3.1112,0 -5.61392,-0.988808 -7.50586,-2.964843 -1.89195,-1.976033 -2.83789,-4.772952 -2.83789,-8.388672 0,-3.615722 0.94594,-6.410686 2.83789,-8.386719 1.89194,-1.976033 4.39466,-2.964844 7.50586,-2.964844 z" />
          <path
             style="font-family:'Varela Round';-inkscape-font-specification:'Varela Round';stroke-width:1.57664"
             sodipodi:type="inkscape:offset"
             inkscape:radius="1.1047647"
             inkscape:original="M 279.94727 33.898438 C 279.14846 33.898438 278.45384 34.170232 277.86523 34.716797 C 277.31867 35.263359 277.04492 35.957961 277.04492 36.798828 L 277.04492 52.25 C 273.97574 49.054713 270.38195 47.457031 266.26172 47.457031 C 263.65503 47.457031 261.17473 48.129224 258.82031 49.474609 C 256.50793 50.77795 254.61604 52.712705 253.14453 55.277344 C 251.71506 57.799942 251 60.762463 251 64.167969 C 251 67.573473 251.71506 70.558407 253.14453 73.123047 C 254.61604 75.645642 256.50793 77.580396 258.82031 78.925781 C 261.17473 80.229121 263.65503 80.880859 266.26172 80.880859 C 270.38195 80.880859 273.97574 79.283179 277.04492 76.087891 L 277.04492 77.728516 C 277.04492 78.527341 277.31867 79.199532 277.86523 79.746094 C 278.45384 80.292656 279.14846 80.566406 279.94727 80.566406 C 280.74609 80.566406 281.41828 80.292656 281.96484 79.746094 C 282.51139 79.199532 282.78516 78.527341 282.78516 77.728516 L 282.78516 36.798828 C 282.78516 36.000005 282.51139 35.327813 281.96484 34.78125 C 281.41828 34.192644 280.74609 33.898438 279.94727 33.898438 z M 152.22266 35.599609 C 148.14447 35.599609 144.42401 36.547506 141.06055 38.439453 C 137.73913 40.3314 135.11172 42.999718 133.17773 46.447266 C 131.24374 49.894814 130.27734 53.846148 130.27734 58.302734 C 130.27734 62.675235 131.20088 66.585655 133.05078 70.033203 C 134.90069 73.438707 137.50763 76.108981 140.87109 78.042969 C 144.23455 79.934916 148.08165 80.880859 152.41211 80.880859 C 157.33117 80.880859 162.14467 79.704029 166.85352 77.349609 C 167.56825 77.013262 168.1362 76.508631 168.55664 75.835938 C 169.01911 75.121201 169.25 74.322361 169.25 73.439453 L 169.25 59.123047 C 169.25 58.282181 168.9558 57.567123 168.36719 56.978516 C 167.77859 56.38991 167.06353 56.097656 166.22266 56.097656 L 153.79883 56.097656 C 153.08409 56.097656 152.47521 56.348996 151.9707 56.853516 C 151.46618 57.358034 151.21484 57.966907 151.21484 58.681641 C 151.21484 59.396378 151.46618 60.007198 151.9707 60.511719 C 152.47521 61.016237 153.08409 61.267578 153.79883 61.267578 L 164.20508 61.267578 L 164.20508 72.683594 C 160.79958 74.533497 157.12198 75.457031 153.16992 75.457031 C 149.63828 75.457031 146.56763 74.721515 143.96094 73.25 C 141.3963 71.736443 139.42062 69.697452 138.0332 67.132812 C 136.68781 64.526132 136.01562 61.58211 136.01562 58.302734 C 136.01562 54.729056 136.73069 51.660343 138.16016 49.095703 C 139.63167 46.489022 141.64825 44.513354 144.21289 43.167969 C 146.77753 41.822585 149.65824 41.150391 152.85352 41.150391 C 155.1659 41.150391 157.31108 41.444599 159.28711 42.033203 C 161.26315 42.621809 163.23881 43.50443 165.21484 44.681641 C 165.63527 44.891857 166.07658 44.998047 166.53906 44.998047 C 167.33788 44.998047 167.96917 44.744752 168.43164 44.240234 C 168.93616 43.735714 169.1875 43.126845 169.1875 42.412109 C 169.1875 41.907591 169.06085 41.44387 168.80859 41.023438 C 168.55633 40.603006 168.26212 40.308797 167.92578 40.140625 C 165.65544 38.711154 163.28133 37.597648 160.80078 36.798828 C 158.36227 36.000005 155.50204 35.599609 152.22266 35.599609 z M 326.2832 35.916016 C 325.4003 35.916016 324.64432 36.167357 324.01367 36.671875 C 323.42506 37.134351 322.9633 37.745174 322.62695 38.501953 L 306.54492 76.466797 C 306.33471 76.971315 306.22852 77.392172 306.22852 77.728516 C 306.22852 78.527341 306.4818 79.199532 306.98633 79.746094 C 307.53288 80.292656 308.22553 80.566406 309.06641 80.566406 C 309.65499 80.566406 310.18204 80.417349 310.64453 80.123047 C 311.14903 79.786698 311.52703 79.347343 311.7793 78.800781 L 315.87891 68.960938 L 337.32031 68.960938 L 341.41992 78.800781 C 341.67218 79.347343 342.02773 79.786698 342.49023 80.123047 C 342.99475 80.417349 343.54228 80.566406 344.13086 80.566406 C 344.97174 80.566406 345.64392 80.292656 346.14844 79.746094 C 346.695 79.199532 346.96875 78.527341 346.96875 77.728516 C 346.96875 77.392172 346.86453 76.971315 346.6543 76.466797 L 330.57227 38.501953 C 330.23592 37.745174 329.75176 37.134351 329.12109 36.671875 C 328.53251 36.167357 327.79697 35.916016 326.91406 35.916016 L 326.2832 35.916016 z M 404.83203 35.916016 C 403.69686 35.916016 402.72851 36.336867 401.92969 37.177734 C 401.13087 37.976556 400.73242 38.942956 400.73242 40.078125 L 400.73242 77.728516 C 400.73242 78.527341 401.00618 79.199532 401.55273 79.746094 C 402.09929 80.292656 402.77149 80.566406 403.57031 80.566406 C 404.36915 80.566406 405.04133 80.292656 405.58789 79.746094 C 406.1765 79.199532 406.4707 78.527341 406.4707 77.728516 L 406.4707 43.609375 L 430.87695 78.863281 C 431.25536 79.367799 431.73954 79.786698 432.32812 80.123047 C 432.91674 80.417349 433.54608 80.566406 434.21875 80.566406 L 434.97656 80.566406 C 436.11173 80.566406 437.07813 80.166008 437.87695 79.367188 C 438.71782 78.568365 439.13867 77.601963 439.13867 76.466797 L 439.13867 38.816406 C 439.13867 38.017583 438.84447 37.34539 438.25586 36.798828 C 437.70927 36.210221 437.0371 35.916016 436.23828 35.916016 C 435.43947 35.916016 434.76534 36.210221 434.21875 36.798828 C 433.6722 37.34539 433.40039 38.017583 433.40039 38.816406 L 433.40039 72.871094 L 409.11914 37.808594 C 408.15215 36.547296 406.99774 35.916016 405.65234 35.916016 L 404.83203 35.916016 z M 326.59961 43.230469 L 335.11328 63.726562 L 318.08594 63.726562 L 326.59961 43.230469 z M 192.63281 47.457031 C 189.39548 47.457031 186.55766 48.149682 184.11914 49.537109 C 181.68064 50.924538 179.78874 52.902157 178.44336 55.466797 C 177.14002 57.989392 176.48828 60.888594 176.48828 64.167969 C 176.48828 67.447343 177.14002 70.370908 178.44336 72.935547 C 179.78874 75.458145 181.68064 77.413352 184.11914 78.800781 C 186.55766 80.188207 189.39548 80.880859 192.63281 80.880859 C 195.8281 80.880859 198.64548 80.188207 201.08398 78.800781 C 203.5225 77.413352 205.41439 75.458145 206.75977 72.935547 C 208.10516 70.370908 208.77734 67.447343 208.77734 64.167969 C 208.77734 60.888594 208.10516 57.989392 206.75977 55.466797 C 205.41439 52.902157 203.5225 50.924538 201.08398 49.537109 C 198.64548 48.149682 195.8281 47.457031 192.63281 47.457031 z M 229.88867 47.457031 C 226.65134 47.457031 223.81351 48.149682 221.375 49.537109 C 218.93649 50.924538 217.04461 52.902157 215.69922 55.466797 C 214.39588 57.989392 213.74414 60.888594 213.74414 64.167969 C 213.74414 67.447343 214.39588 70.370908 215.69922 72.935547 C 217.04461 75.458145 218.93649 77.413352 221.375 78.800781 C 223.81351 80.188207 226.65134 80.880859 229.88867 80.880859 C 233.08396 80.880859 235.90133 80.188207 238.33984 78.800781 C 240.77835 77.413352 242.67024 75.458145 244.01562 72.935547 C 245.36102 70.370908 246.0332 67.447343 246.0332 64.167969 C 246.0332 60.888594 245.36101 57.989392 244.01562 55.466797 C 242.67023 52.902157 240.77835 50.924538 238.33984 49.537109 C 235.90133 48.149682 233.08396 47.457031 229.88867 47.457031 z M 364.42188 47.457031 C 360.46981 47.457031 357.42156 48.382516 355.27734 50.232422 C 353.17518 52.082324 352.125 54.478846 352.125 57.421875 C 352.125 59.524038 352.69297 61.225954 353.82812 62.529297 C 355.00536 63.790593 356.3926 64.736539 357.99023 65.367188 C 359.62993 65.997839 361.68935 66.606708 364.16992 67.195312 C 366.60843 67.825964 368.35322 68.393917 369.4043 68.898438 C 370.49741 69.402956 371.04492 70.138475 371.04492 71.105469 C 371.04492 74.090541 368.71171 75.583984 364.04492 75.583984 C 362.36317 75.583984 360.84929 75.416424 359.50391 75.080078 C 358.15851 74.743731 356.81217 74.280012 355.4668 73.691406 C 355.08839 73.523232 354.71041 73.439453 354.33203 73.439453 C 353.6173 73.439453 353.0289 73.690794 352.56641 74.195312 C 352.10394 74.699832 351.87305 75.288246 351.87305 75.960938 C 351.87305 76.843846 352.23055 77.538451 352.94531 78.042969 C 356.39284 79.934916 360.21756 80.880859 364.42188 80.880859 C 368.28985 80.880859 371.27675 79.998238 373.37891 78.232422 C 375.52313 76.466605 376.59375 74.237644 376.59375 71.546875 C 376.59375 69.360626 376.02578 67.61584 374.89062 66.3125 C 373.79751 65.009159 372.47357 64.063213 370.91797 63.474609 C 369.36239 62.843959 367.34384 62.214632 364.86328 61.583984 C 362.38274 61.037422 360.55415 60.469466 359.37695 59.880859 C 358.19972 59.292253 357.61133 58.366765 357.61133 57.105469 C 357.61133 55.802126 358.2426 54.751948 359.50391 53.953125 C 360.80726 53.112261 362.59294 52.691406 364.86328 52.691406 C 367.2177 52.691406 369.61422 53.069394 372.05273 53.826172 C 372.38908 53.910262 372.66285 53.953125 372.87305 53.953125 C 373.58778 53.953125 374.1762 53.69983 374.63867 53.195312 C 375.14319 52.690795 375.39648 52.10238 375.39648 51.429688 C 375.39648 50.92517 375.22697 50.440989 374.89062 49.978516 C 374.59632 49.516039 374.15502 49.201374 373.56641 49.033203 C 370.70746 47.98212 367.6592 47.457031 364.42188 47.457031 z M 461.38477 47.457031 C 458.06333 47.457031 455.26839 48.235415 452.99805 49.791016 C 450.72772 51.346616 449.04624 53.383655 447.95312 55.90625 C 446.85998 58.428845 446.3125 61.182895 446.3125 64.167969 C 446.3125 69.46542 447.74262 73.586269 450.60156 76.529297 C 453.50254 79.430282 457.51719 80.880859 462.64648 80.880859 C 465.16907 80.880859 467.22853 80.649977 468.82617 80.1875 C 470.4238 79.725024 472.0439 79.030422 473.68359 78.105469 C 474.77673 77.474819 475.32227 76.698387 475.32227 75.773438 C 475.32227 75.058701 475.07094 74.470286 474.56641 74.007812 C 474.06189 73.545337 473.47348 73.3125 472.80078 73.3125 C 472.38034 73.3125 472.00041 73.396279 471.66406 73.564453 C 470.40277 74.195104 469.10126 74.679279 467.75586 75.015625 C 466.45254 75.351969 464.9162 75.521484 463.15039 75.521484 C 459.82897 75.521484 457.24446 74.700234 455.39453 73.060547 C 453.54463 71.42086 452.45155 69.130527 452.11523 66.1875 L 473.49414 66.1875 C 474.37705 66.1875 475.06969 65.91375 475.57422 65.367188 C 476.1208 64.820626 476.39453 64.148431 476.39453 63.349609 C 476.39453 60.490667 475.80614 57.863262 474.62891 55.466797 C 473.45169 53.028287 471.72736 51.093534 469.45703 49.664062 C 467.18666 48.192548 464.49595 47.457031 461.38477 47.457031 z M 502.55078 47.771484 C 501.83605 47.771484 501.18431 47.981912 500.5957 48.402344 C 500.04914 48.822776 499.74591 49.433204 499.46094 50.042969 L 492.14648 73.753906 L 484.76758 49.474609 C 484.5994 48.970091 484.26234 48.569696 483.75781 48.275391 C 480.67157 47.124218 479.0311 49.908211 479.5332 51.681641 L 488.48828 77.917969 C 488.74051 78.674748 489.2023 79.304074 489.875 79.808594 C 490.5477 80.313112 491.30564 80.566406 492.14648 80.566406 C 492.98736 80.566406 493.74332 80.313112 494.41602 79.808594 C 495.08869 79.304074 495.57287 78.652338 495.86719 77.853516 L 502.55078 56.978516 L 509.23633 77.853516 C 509.53065 78.652338 510.0148 79.304074 510.6875 79.808594 C 511.36017 80.313112 512.11618 80.566406 512.95703 80.566406 C 513.7979 80.566406 514.55389 80.313112 515.22656 79.808594 C 515.89926 79.304074 516.36296 78.674748 516.61523 77.917969 L 525.57031 51.681641 C 525.69643 51.30325 525.75977 50.945721 525.75977 50.609375 C 525.75977 49.810555 525.48603 49.138361 524.93945 48.591797 C 524.39289 48.045234 523.72069 47.771484 522.92188 47.771484 C 522.33326 47.771484 521.78575 47.939048 521.28125 48.275391 C 520.81876 48.569696 520.50411 48.970091 520.33594 49.474609 L 512.95703 73.753906 L 505.64062 50.042969 C 505.43039 49.370277 505.03197 48.822776 504.44336 48.402344 C 503.89681 47.981912 503.26551 47.771484 502.55078 47.771484 z M 461.38477 52.3125 C 464.60896 52.416664 467.50733 54.037109 469.08008 56.349609 C 470.04707 57.737038 470.5926 59.459409 470.71875 61.519531 L 452.11523 61.519531 C 452.24135 59.459409 452.76645 57.737038 453.69141 56.349609 C 454.61635 54.962183 455.77273 53.952914 457.16016 53.322266 C 458.54759 52.649574 459.95528 52.3125 461.38477 52.3125 z M 192.63281 52.691406 C 199.73884 53.023204 202.99364 58.245866 203.03906 64.105469 C 203.03906 66.754197 202.51202 68.940288 201.46094 70.664062 C 200.45189 72.387835 199.14842 73.650396 197.55078 74.449219 C 195.99518 75.248041 194.35659 75.646484 192.63281 75.646484 C 190.86699 75.646484 189.18554 75.248041 187.58789 74.449219 C 186.03229 73.650396 184.74927 72.387835 183.74023 70.664062 C 182.73119 68.940287 182.22656 66.754197 182.22656 64.105469 C 182.22656 61.498788 182.73119 59.333148 183.74023 57.609375 C 184.74927 55.885602 186.03229 54.64545 187.58789 53.888672 C 189.18554 53.089849 190.86699 52.691406 192.63281 52.691406 z M 228.8125 52.816406 C 232.81885 52.481557 236.73158 54.29119 238.7168 57.609375 C 239.76788 59.333148 240.29492 61.498788 240.29492 64.105469 C 240.29492 66.754197 239.76788 68.940288 238.7168 70.664062 C 237.70776 72.387835 236.40428 73.650396 234.80664 74.449219 C 233.25104 75.248041 231.61244 75.646484 229.88867 75.646484 C 228.12286 75.646484 226.4414 75.248041 224.84375 74.449219 C 223.28815 73.650396 222.00513 72.387835 220.99609 70.664062 C 219.98705 68.940287 219.48242 66.754197 219.48242 64.105469 C 219.48242 61.498788 219.98705 59.333148 220.99609 57.609375 C 222.00513 55.885602 223.28815 54.64545 224.84375 53.888672 C 226.13201 53.276499 227.47705 52.928023 228.8125 52.816406 z M 267.08203 52.816406 C 271.11077 52.954493 274.63834 54.94417 277.04492 57.546875 L 277.04492 70.791016 C 275.74158 72.220487 274.22769 73.376855 272.50391 74.259766 C 270.82219 75.10063 269.01602 75.521484 267.08203 75.521484 C 263.97083 75.521484 261.46811 74.532676 259.57617 72.556641 C 257.68422 70.580608 256.73828 67.783689 256.73828 64.167969 C 256.73828 60.552247 257.68422 57.757283 259.57617 55.78125 C 261.46811 53.805217 263.97083 52.816406 267.08203 52.816406 z "
             xlink:href="#path15111"
             id="path16004"
             inkscape:href="#path15111"
             d="m 279.94727,32.792969 c -2.71012,0.84274 -0.0525,-1.263634 -2.86329,1.142578 -0.74706,0.747066 -1.14453,1.782638 -1.14453,2.863281 v 13.029297 c -2.84118,-2.252646 -6.09168,-3.476563 -9.67773,-3.476563 -2.79602,10e-7 -5.48176,0.732107 -7.98828,2.164063 -2.49307,1.406395 -4.53332,3.501525 -6.08789,6.210937 a 1.1048752,1.1048752 0 0 0 -0.002,0.0059 c -1.53447,2.707893 -2.28906,5.875395 -2.28906,9.435547 0,3.56015 0.75449,6.745984 2.28516,9.492187 a 1.1048752,1.1048752 0 0 0 0.01,0.01953 c 1.55529,2.666219 3.59226,4.755982 6.07617,6.201171 a 1.1048752,1.1048752 0 0 0 0.0195,0.01172 c 2.50552,1.386985 5.18572,2.09375 7.97656,2.09375 3.64271,0 6.93642,-1.268666 9.80859,-3.591797 0.13666,0.79796 0.4389,1.558038 1.01367,2.132813 a 1.1048752,1.1048752 0 0 0 0.0293,0.02734 c 0.77141,0.716299 1.78278,1.117187 2.83399,1.117187 1.05121,0 2.06244,-0.408141 2.79882,-1.144531 0.73637,-0.736379 1.14453,-1.74759 1.14453,-2.798828 V 36.798828 c 0,-1.043452 -0.40674,-2.044344 -1.13281,-2.779297 -0.72819,-0.776601 -1.74671,-1.226562 -2.81054,-1.226562 z m -127.72461,1.701172 c -4.24938,0 -8.17369,0.99711 -11.70313,2.982421 a 1.1048752,1.1048752 0 0 0 -0.006,0.0039 c -3.49187,1.989041 -6.27496,4.818012 -8.29883,8.425781 -2.03338,3.624727 -3.04297,7.780188 -3.04296,12.396484 0,4.528064 0.96421,8.632705 2.90624,12.251954 a 1.1048752,1.1048752 0 0 0 0.002,0.0059 c 1.94209,3.575198 4.70967,6.409384 8.24023,8.439453 a 1.1048752,1.1048752 0 0 0 0.01,0.0059 c 3.54005,1.991281 7.59069,2.980469 12.08203,2.980469 5.08926,0 10.07683,-1.225005 14.91797,-3.642578 0.88912,-0.420184 1.63225,-1.079685 2.15625,-1.914062 0.57308,-0.887953 0.86914,-1.916849 0.86914,-2.990235 V 59.123047 c 0,-1.098554 -0.43224,-2.15099 -1.20703,-2.925781 -0.77565,-0.775657 -1.82893,-1.205079 -2.92578,-1.205078 h -12.42383 c -0.97374,0 -1.92033,0.391014 -2.60938,1.080078 -0.68905,0.68905 -1.08008,1.635643 -1.08007,2.609375 0,0.973733 0.39002,1.92127 1.08007,2.611328 0.68905,0.68906 1.63564,1.080078 2.60938,1.080078 h 9.30078 v 9.566406 c -3.08737,1.567548 -6.36591,2.41211 -9.92969,2.412109 -3.37581,0 -6.24077,-0.69805 -8.66015,-2.0625 -2.39479,-1.416352 -4.20564,-3.288435 -5.49805,-5.673828 -1.25497,-2.436008 -1.89063,-5.188739 -1.89063,-8.3125 0,-3.423799 0.68057,-6.290935 2.00196,-8.664062 1.37657,-2.438512 3.22191,-4.24282 5.60351,-5.492188 2.39732,-1.257609 5.08662,-1.890625 8.12696,-1.890625 2.21867,0 4.25623,0.28103 6.11914,0.835938 1.87953,0.55986 3.77127,1.403296 5.67773,2.539062 a 1.1048752,1.1048752 0 0 0 0.0703,0.03906 c 0.56391,0.281957 1.18677,0.433594 1.81836,0.433594 1.02499,0 2.01333,-0.377936 2.68946,-1.105469 0.67651,-0.687275 1.06445,-1.621733 1.06445,-2.585938 0,-0.689405 -0.18439,-1.369172 -0.53711,-1.957031 -0.32927,-0.548787 -0.76763,-1.015156 -1.33203,-1.298828 -0.002,-9.48e-4 -0.002,-0.003 -0.004,-0.0039 -2.31754,-1.448993 -4.745,-2.587539 -7.28125,-3.404297 h 0.006 c -2.57759,-0.844385 -5.55257,-1.253906 -8.92187,-1.253906 z m 174.06054,0.316406 c -1.09012,0 -2.12684,0.335327 -2.95312,0.994141 -0.73846,0.580827 -1.31412,1.350827 -1.71289,2.248046 a 1.1048752,1.1048752 0 0 0 -0.008,0.01758 l -16.08204,37.964844 a 1.1048752,1.1048752 0 0 0 -0.002,0.0059 c -0.2433,0.58393 -0.40234,1.118626 -0.40234,1.6875 0,1.032347 0.36503,2.024696 1.05078,2.767578 a 1.1048752,1.1048752 0 0 0 0.0312,0.03125 c 0.74613,0.746145 1.78067,1.144531 2.86133,1.144531 0.7751,0 1.5312,-0.209499 2.17187,-0.617187 a 1.1048752,1.1048752 0 0 0 0.0195,-0.01172 c 0.66204,-0.44138 1.19156,-1.056012 1.52539,-1.779297 a 1.1048752,1.1048752 0 0 0 0.0156,-0.03711 l 3.8164,-9.160156 h 19.96875 l 3.81641,9.160156 a 1.1048752,1.1048752 0 0 0 0.0156,0.03711 c 0.32337,0.700653 0.80903,1.304853 1.42382,1.751953 a 1.1048752,1.1048752 0 0 0 0.0937,0.0625 c 0.66478,0.387784 1.42217,0.59375 2.19727,0.59375 1.07234,0 2.09953,-0.402798 2.81055,-1.162109 0.72682,-0.735068 1.13281,-1.737258 1.13281,-2.78125 0,-0.56456 -0.15612,-1.101292 -0.40039,-1.6875 a 1.1048752,1.1048752 0 0 0 -0.002,-0.0059 L 331.58984,38.070312 a 1.1048752,1.1048752 0 0 0 -0.008,-0.01758 c -0.40168,-0.903768 -1.01334,-1.668916 -1.78711,-2.24414 -0.79083,-0.659976 -1.80642,-0.998047 -2.88086,-0.998047 z m 78.54883,0 c -1.40342,0 -2.71335,0.573624 -3.69141,1.597656 -0.97745,0.982756 -1.51367,2.281068 -1.51367,3.669922 v 37.650391 c 0,1.051229 0.40817,2.062444 1.14453,2.798828 0.7364,0.736395 1.74762,1.144531 2.79883,1.144531 1.04345,0 2.04434,-0.40672 2.7793,-1.132813 0.77661,-0.728198 1.22656,-1.746716 1.22656,-2.810546 V 47.146484 l 22.39258,32.345704 a 1.1048752,1.1048752 0 0 0 0.0234,0.0332 c 0.4737,0.631564 1.08206,1.153734 1.78711,1.55664 a 1.1048752,1.1048752 0 0 0 0.0547,0.0293 c 0.7369,0.368436 1.5489,0.560547 2.38477,0.560547 h 0.75781 c 1.39012,0 2.6878,-0.538784 3.66992,-1.515625 1.02339,-0.977432 1.59766,-2.286035 1.59766,-3.689453 V 38.816406 c 0,-1.056275 -0.44647,-2.065805 -1.21289,-2.792968 -0.72717,-0.766386 -1.73669,-1.212891 -2.79297,-1.212891 -1.06382,0 -2.0834,0.449053 -2.8125,1.226562 -0.72695,0.735881 -1.13086,1.737631 -1.13086,2.779297 V 69.333984 L 410.02734,37.179688 a 1.1048752,1.1048752 0 0 0 -0.0312,-0.04297 c -1.117,-1.456972 -2.65277,-2.326172 -4.34375,-2.326172 z m -78.23242,11.298828 6.85937,16.511719 h -13.71875 z m -133.9668,0.242187 c -3.39491,0 -6.43918,0.733154 -9.06054,2.22461 -2.61722,1.489115 -4.67265,3.641908 -6.10743,6.376953 a 1.1048752,1.1048752 0 0 0 -0.004,0.0059 c -1.39285,2.695839 -2.07813,5.783236 -2.07813,9.208985 0,3.425747 0.6866,6.533246 2.07617,9.267578 a 1.1048752,1.1048752 0 0 0 0.01,0.01953 c 1.43621,2.692905 3.49074,4.820054 6.10352,6.306641 2.62136,1.491455 5.66563,2.224609 9.06054,2.224609 3.35495,0 6.37901,-0.734464 8.99805,-2.224609 2.6128,-1.486587 4.66731,-3.613738 6.10352,-6.306641 a 1.1048752,1.1048752 0 0 0 0.004,-0.0059 c 1.43552,-2.736447 2.14453,-5.850912 2.14453,-9.28125 0,-3.430339 -0.70955,-6.5228 -2.14843,-9.220703 -1.43462,-2.731988 -3.48833,-4.883145 -6.10352,-6.371094 -2.61904,-1.490147 -5.6431,-2.224609 -8.99805,-2.22461 z m 37.25586,0 c -3.39491,0 -6.43919,0.733152 -9.06055,2.22461 -2.61723,1.489116 -4.67264,3.641914 -6.10742,6.376953 a 1.1048752,1.1048752 0 0 0 -0.004,0.0059 c -1.39285,2.695839 -2.07813,5.783236 -2.07813,9.208985 0,3.425747 0.6866,6.533246 2.07617,9.267578 a 1.1048752,1.1048752 0 0 0 0.01,0.01953 c 1.43622,2.692898 3.49073,4.820053 6.10351,6.306641 2.62136,1.491457 5.66564,2.224609 9.06055,2.224609 3.35495,0 6.379,-0.734466 8.99805,-2.224609 2.61279,-1.486587 4.66731,-3.613738 6.10351,-6.306641 a 1.1048752,1.1048752 0 0 0 0.004,-0.0059 c 1.43553,-2.736448 2.14453,-5.850912 2.14453,-9.28125 0,-3.430341 -0.70955,-6.522802 -2.14844,-9.220703 -1.43462,-2.731984 -3.48833,-4.883144 -6.10351,-6.371094 -2.61905,-1.490145 -5.6431,-2.224609 -8.99805,-2.22461 z m 134.53321,0 c -4.12455,0 -7.4669,0.97578 -9.86524,3.044922 a 1.1048752,1.1048752 0 0 0 -0.01,0.0059 c -2.32041,2.04196 -3.52735,4.813688 -3.52735,8.019531 0,2.301156 0.6465,4.307133 1.97461,5.832031 a 1.1048752,1.1048752 0 0 0 0.0254,0.0293 c 1.28463,1.376354 2.81904,2.422343 4.56445,3.111328 a 1.1048752,1.1048752 0 0 0 0.01,0.0039 c 1.70661,0.656385 3.80687,1.274689 6.32031,1.871093 l -0.0215,-0.0039 c 2.40652,0.622379 4.12051,1.190814 5.0332,1.628906 a 1.1048752,1.1048752 0 0 0 0.0156,0.0078 c 0.84961,0.392133 0.99804,0.653141 0.99804,1.203125 0,1.204698 -0.35519,1.861429 -1.24023,2.427734 -0.88504,0.566305 -2.43875,0.945313 -4.6543,0.945313 -1.60837,0 -3.03348,-0.160714 -4.27344,-0.470704 -1.27991,-0.319975 -2.56482,-0.76187 -3.85546,-1.326171 -0.50348,-0.223755 -1.04253,-0.347657 -1.58399,-0.347657 -0.97373,0 -1.92569,0.401385 -2.58008,1.115235 -0.62782,0.68491 -0.98437,1.586232 -0.98437,2.511719 0,1.181129 0.57775,2.304451 1.54101,2.984374 a 1.1048752,1.1048752 0 0 0 0.10547,0.06641 c 3.61349,1.983023 7.63779,2.974609 12.00782,2.974609 4.03491,0 7.30819,-0.926689 9.66601,-2.90625 2.35275,-1.940546 3.61133,-4.552231 3.61133,-7.533203 0,-2.373151 -0.63783,-4.416221 -1.96875,-5.949219 -1.20334,-1.432636 -2.69219,-2.499221 -4.41406,-3.152344 -1.62463,-0.657531 -3.67686,-1.294833 -6.18164,-1.93164 a 1.1048752,1.1048752 0 0 0 -0.0332,-0.0078 c -2.4349,-0.536505 -4.20832,-1.1022 -5.23047,-1.613281 -0.89461,-0.447302 -1.15429,-0.869392 -1.15429,-1.787109 0,-0.946617 0.34658,-1.564953 1.3789,-2.21875 a 1.1048752,1.1048752 0 0 0 0.008,-0.0059 c 1.05819,-0.682698 2.62595,-1.083984 4.75976,-1.083984 2.23618,0 4.51906,0.357073 6.86133,1.083984 a 1.1048752,1.1048752 0 0 0 0.0606,0.01758 c 0.38749,0.09688 0.7275,0.160156 1.08789,0.160156 0.96855,0 1.90955,-0.402428 2.5625,-1.105469 0.66535,-0.675489 1.0664,-1.582875 1.0664,-2.523437 0,-0.738588 -0.27112,-1.455072 -0.70507,-2.064454 -0.43993,-0.674996 -1.13521,-1.160131 -1.91797,-1.386718 -2.96668,-1.081555 -6.12501,-1.626954 -9.45703,-1.626954 z m 96.96289,0 c -3.49405,0 -6.53438,0.829908 -9.01172,2.527344 -2.43149,1.666021 -4.26241,3.88514 -5.4336,6.587891 -1.15627,2.668285 -1.73242,5.581018 -1.73242,8.701172 0,5.496282 1.51179,9.950209 4.60156,13.130859 a 1.1048752,1.1048752 0 0 0 0.0117,0.01172 c 3.13114,3.13114 7.4886,4.675781 12.82617,4.675781 2.59,0 4.73945,-0.232601 6.48633,-0.738281 1.68982,-0.489162 3.38898,-1.21802 5.09375,-2.179688 a 1.1048752,1.1048752 0 0 0 0.01,-0.0059 c 1.2953,-0.747281 2.1914,-1.929716 2.1914,-3.289062 0,-0.973724 -0.40133,-1.92569 -1.11523,-2.580079 -0.68377,-0.626787 -1.5841,-0.986328 -2.51172,-0.986328 -0.5672,0 -1.12813,0.11778 -1.63086,0.369141 -1.19168,0.595848 -2.41561,1.050685 -3.68164,1.367187 a 1.1048752,1.1048752 0 0 0 -0.008,0.002 c -1.18689,0.306297 -2.63497,0.470704 -4.33008,0.470704 -3.13931,0 -5.41871,-0.759287 -7.02344,-2.181641 -1.34862,-1.195368 -2.135,-2.883433 -2.58203,-4.941406 h 19.94922 c 1.10284,0 2.15182,-0.39212 2.87305,-1.16211 0.72686,-0.73508 1.13281,-1.737278 1.13281,-2.78125 0,-3.008334 -0.62488,-5.812238 -1.87695,-8.363281 -1.26056,-2.611138 -3.13929,-4.719589 -5.57422,-6.253906 -2.46184,-1.592978 -5.38268,-2.380859 -8.66406,-2.38086 z m 41.16601,0.314454 c -3.4373,0.333883 -3.95651,2.453879 -4.14648,3.050781 l -6.25,20.263672 -6.33008,-20.826172 a 1.1048752,1.1048752 0 0 0 -0.008,-0.0293 c -0.25277,-0.758273 -0.80571,-1.398548 -1.50196,-1.804688 a 1.1048752,1.1048752 0 0 0 -0.16992,-0.08008 c -1.8764,-0.699901 -3.63912,-0.182348 -4.64648,0.88086 -1.00736,1.063207 -1.40559,2.525377 -1.02735,3.861328 a 1.1048752,1.1048752 0 0 0 0.0176,0.05664 l 8.95117,26.228516 c 4.6e-4,0.0014 0.001,0.0025 0.002,0.0039 0.32242,0.964459 0.94134,1.799274 1.77148,2.421875 0.84937,0.637017 1.87089,0.978516 2.93359,0.978516 1.06274,0 2.08311,-0.342124 2.93164,-0.978516 0.83445,-0.625854 1.46336,-1.472305 1.82618,-2.457031 a 1.1048752,1.1048752 0 0 0 0.0156,-0.04687 l 5.63086,-17.585937 5.63281,17.58789 a 1.1048752,1.1048752 0 0 0 0.0156,0.04492 c 0.36281,0.984703 0.99167,1.831165 1.82617,2.457031 0.84854,0.636424 1.86893,0.978516 2.93164,0.978516 1.06273,0 2.08311,-0.342098 2.93164,-0.978516 0.82934,-0.622 1.45045,-1.455875 1.77344,-2.421875 l 8.95312,-26.232422 a 1.1048752,1.1048752 0 0 0 0.004,-0.0078 c 0.15704,-0.471171 0.24609,-0.946831 0.24609,-1.421875 0,-1.051208 -0.40811,-2.062431 -1.14453,-2.798828 -0.73639,-0.736396 -1.74762,-1.144531 -2.79882,-1.144531 -0.79347,0 -1.57238,0.243657 -2.24024,0.685546 -0.64979,0.416201 -1.15213,1.04623 -1.39453,1.773438 a 1.1048752,1.1048752 0 0 0 -0.008,0.0293 l -6.33008,20.830078 -6.25391,-20.267578 a 1.1048752,1.1048752 0 0 0 0,-0.0039 c -0.27571,-0.882238 -0.84077,-1.645113 -1.59765,-2.191407 -0.72828,-0.554288 -1.62232,-0.855468 -2.54688,-0.855468 z m -41.18164,6.755859 c 2.86742,0.09949 5.44745,1.564701 6.79688,3.548828 a 1.1048752,1.1048752 0 0 0 0.008,0.0098 c 0.64277,0.922247 1.01329,2.101545 1.23437,3.433593 h -15.99023 c 0.21555,-1.340731 0.57693,-2.526531 1.19336,-3.451171 0.82636,-1.239565 1.81213,-2.092166 3.00586,-2.634766 a 1.1048752,1.1048752 0 0 0 0.0254,-0.01172 c 1.24858,-0.605373 2.47618,-0.892104 3.72656,-0.894531 z m -268.76562,0.378906 c 3.27718,0.158849 5.51631,1.388776 7.02539,3.226563 1.51224,1.841644 2.28281,4.355771 2.30468,7.082031 1e-5,0.0013 -1e-5,0.0026 0,0.0039 -0.001,2.49809 -0.49667,4.468842 -1.41601,5.976563 a 1.1048752,1.1048752 0 0 0 -0.01,0.01563 c -0.91831,1.568771 -2.05502,2.65739 -3.45117,3.355469 a 1.1048752,1.1048752 0 0 0 -0.01,0.0059 c -1.40796,0.723005 -2.86053,1.074219 -4.41407,1.074219 -1.59816,0 -3.09636,-0.353595 -4.54687,-1.078125 -0.001,-6.66e-4 -0.003,-0.0013 -0.004,-0.002 -1.34991,-0.69573 -2.46935,-1.784967 -3.38867,-3.355469 -0.88445,-1.510926 -1.36133,-3.491591 -1.36133,-6 0,-2.4641 0.47496,-4.42329 1.36133,-5.9375 0.91948,-1.570782 2.03342,-2.631545 3.37695,-3.285157 a 1.1048752,1.1048752 0 0 0 0.0117,-0.0059 c 1.44261,-0.721304 2.93318,-1.071729 4.52149,-1.076172 z m 36.30078,0.117188 c 3.61763,-0.302361 7.11751,1.33659 8.86523,4.257812 a 1.1048752,1.1048752 0 0 0 0.004,0.0078 c 0.92242,1.512768 1.41601,3.464107 1.41601,5.921875 0,2.502178 -0.49562,4.474921 -1.41601,5.984375 a 1.1048752,1.1048752 0 0 0 -0.01,0.01563 c -0.9183,1.568765 -2.05502,2.657389 -3.45117,3.355469 a 1.1048752,1.1048752 0 0 0 -0.01,0.0059 c -1.40795,0.723004 -2.86053,1.074219 -4.41406,1.074219 -1.59815,0 -3.09636,-0.353596 -4.54687,-1.078125 -0.001,-6.66e-4 -0.003,-0.0013 -0.004,-0.002 -1.34991,-0.69573 -2.46935,-1.784967 -3.38867,-3.355469 -0.88445,-1.510926 -1.36133,-3.491591 -1.36133,-6 0,-2.4641 0.47496,-4.42329 1.36133,-5.9375 0.91772,-1.567778 2.02905,-2.627333 3.36914,-3.28125 l 0.004,-0.002 c 1.16457,-0.552797 2.3768,-0.866064 3.58203,-0.966797 z m 38.16601,0.0059 c 3.54255,0.12928 6.65205,1.872416 8.86914,4.150391 v 12.193359 c -1.15533,1.207721 -2.43718,2.238536 -3.93359,3.00586 -1.52945,0.763984 -3.15163,1.142578 -4.92383,1.142578 -2.87712,0 -5.02434,-0.865568 -6.70703,-2.623047 -1.65903,-1.732763 -2.53125,-4.201965 -2.53125,-7.625 0,-3.423038 0.87197,-5.890022 2.53125,-7.623047 1.6801,-1.754773 3.82486,-2.618429 6.69531,-2.621094 z" />
          <path
             id="path15111"
             style="font-family:'Varela Round';-inkscape-font-specification:'Varela Round';stroke-width:1.57664"
             d="m 279.94655,33.897635 c -0.79881,0 -1.49231,0.273205 -2.08092,0.81977 -0.54656,0.546562 -0.81984,1.240238 -0.81984,2.081105 v 15.450871 c -3.06918,-3.195287 -6.66406,-4.792878 -10.78429,-4.792878 -2.60669,0 -5.08732,0.672854 -7.44174,2.018239 -2.31238,1.303341 -4.20418,3.237108 -5.67569,5.801747 -1.42947,2.522598 -2.14411,5.486719 -2.14411,8.892225 0,3.405504 0.71464,6.390449 2.14411,8.955089 1.47151,2.522595 3.36331,4.456864 5.67569,5.802249 2.35442,1.30334 4.83505,1.954872 7.44174,1.954872 4.12023,0 7.71511,-1.597591 10.78429,-4.792879 v 1.639535 c 0,0.798825 0.27328,1.47168 0.81984,2.018242 0.58861,0.546562 1.28211,0.819767 2.08092,0.819767 0.79882,0 1.47171,-0.273205 2.01827,-0.819767 0.54655,-0.546562 0.81983,-1.219417 0.81983,-2.018242 V 36.79851 c 0,-0.798823 -0.27328,-1.471175 -0.81983,-2.017738 -0.54656,-0.588606 -1.21945,-0.883137 -2.01827,-0.883137 z M 152.22311,35.60054 c -4.07819,0 -7.79888,0.946062 -11.16234,2.838009 -3.32142,1.891947 -5.949,4.561537 -7.88299,8.009085 -1.93399,3.447548 -2.9013,7.399377 -2.9013,11.855963 0,4.372501 0.92502,8.282684 2.77492,11.730232 1.84991,3.405504 4.45688,6.075097 7.82034,8.009085 3.36346,1.891947 7.20994,2.83801 11.5404,2.83801 4.91906,0 9.73339,-1.177121 14.44224,-3.531541 0.71473,-0.336347 1.28243,-0.840612 1.70287,-1.513305 0.46247,-0.714736 0.69346,-1.514033 0.69346,-2.396941 V 59.123869 c 0,-0.840866 -0.29442,-1.555868 -0.88303,-2.144475 -0.5886,-0.588606 -1.30324,-0.882633 -2.14411,-0.882633 h -12.42396 c -0.71474,0 -1.3242,0.25188 -1.82871,0.7564 -0.50452,0.504518 -0.75666,1.114404 -0.75666,1.829138 0,0.714737 0.25214,1.324118 0.75666,1.828639 0.50451,0.504518 1.11397,0.756902 1.82871,0.756902 h 10.40569 v 11.414897 c -3.4055,1.849903 -7.08391,2.774639 -11.03597,2.774639 -3.53164,0 -6.60111,-0.735825 -9.2078,-2.20734 -2.56464,-1.513557 -4.54048,-3.552442 -5.9279,-6.117082 -1.34539,-2.606681 -2.01827,-5.549981 -2.01827,-8.829357 0,-3.573678 0.71464,-6.642415 2.14411,-9.207055 1.47151,-2.606681 3.48964,-4.5831 6.05428,-5.928485 2.56464,-1.345384 5.44489,-2.017734 8.64017,-2.017734 2.31238,0 4.45631,0.294029 6.43234,0.882633 1.97604,0.588606 3.95241,1.471697 5.92844,2.648908 0.42043,0.210216 0.86179,0.315334 1.32427,0.315334 0.79882,0 1.42943,-0.252384 1.8919,-0.756902 0.50452,-0.50452 0.75665,-1.113902 0.75665,-1.828638 0,-0.504518 -0.1258,-0.967139 -0.37806,-1.387571 -0.25226,-0.420432 -0.54668,-0.714963 -0.88302,-0.883135 -2.27034,-1.429471 -4.64579,-2.543622 -7.12634,-3.342442 -2.43851,-0.798823 -5.29761,-1.19797 -8.57699,-1.19797 z m 174.06081,0.315334 c -0.8829,0 -1.63982,0.252384 -2.27047,0.756902 -0.58861,0.462476 -1.0511,1.07186 -1.38745,1.828639 l -16.0814,37.96483 c -0.21021,0.504518 -0.31539,0.924991 -0.31539,1.261335 0,0.798825 0.25212,1.47168 0.75665,2.018242 0.54655,0.546562 1.24005,0.819767 2.08093,0.819767 0.58858,0 1.11453,-0.147265 1.57702,-0.441567 0.5045,-0.336349 0.88296,-0.777641 1.13523,-1.324203 l 4.09921,-9.838226 h 21.44166 l 4.09919,9.838226 c 0.25226,0.546562 0.60957,0.987854 1.07207,1.324203 0.50452,0.294302 1.05108,0.441567 1.63966,0.441567 0.84088,0 1.51377,-0.273205 2.01829,-0.819767 0.54656,-0.546562 0.81984,-1.219417 0.81984,-2.018242 0,-0.336344 -0.10519,-0.756817 -0.31542,-1.261335 l -16.08137,-37.96483 c -0.33635,-0.756779 -0.82,-1.366163 -1.45067,-1.828639 -0.58858,-0.504518 -1.32438,-0.756902 -2.20729,-0.756902 z m 78.54797,0 c -1.13517,0 -2.10249,0.420471 -2.90131,1.261338 -0.79882,0.798822 -1.19843,1.765703 -1.19843,2.900872 V 77.72758 c 0,0.798825 0.27328,1.47168 0.81983,2.018242 0.54656,0.546562 1.21945,0.819767 2.01827,0.819767 0.79884,0 1.47173,-0.273205 2.01829,-0.819767 0.58861,-0.546562 0.88301,-1.219417 0.88301,-2.018242 V 43.609627 l 24.40562,35.253559 c 0.37841,0.504518 0.86206,0.924487 1.45064,1.260836 0.58862,0.294302 1.21923,0.441567 1.8919,0.441567 h 0.7572 c 1.13517,0 2.10194,-0.399147 2.90076,-1.197967 0.84087,-0.798823 1.26109,-1.766211 1.26109,-2.901377 V 38.816749 c 0,-0.798823 -0.29388,-1.471677 -0.88249,-2.018239 -0.54659,-0.588607 -1.21945,-0.882636 -2.01827,-0.882636 -0.79881,0 -1.4717,0.294029 -2.01829,0.882636 -0.54655,0.546562 -0.81983,1.219416 -0.81983,2.018239 V 72.871836 L 409.1201,37.80788 c -0.96699,-1.261298 -2.12298,-1.892006 -3.46838,-1.892006 z m -78.23309,7.315554 8.51382,20.495716 H 318.085 Z m -133.96621,4.225075 c -3.23733,0 -6.07528,0.693678 -8.5138,2.081105 -2.4385,1.387429 -4.33083,3.363845 -5.67621,5.928485 -1.30334,2.522595 -1.95456,5.423246 -1.95456,8.702621 0,3.279374 0.65122,6.201348 1.95456,8.765987 1.34538,2.522598 3.23771,4.477689 5.67621,5.865118 2.43852,1.387426 5.27647,2.081105 8.5138,2.081105 3.19529,0 6.01211,-0.693679 8.45061,-2.081105 2.43852,-1.387429 4.33031,-3.34252 5.67569,-5.865118 1.34539,-2.564639 2.01827,-5.486613 2.01827,-8.765987 0,-3.279375 -0.67288,-6.180026 -2.01827,-8.702621 -1.34538,-2.56464 -3.23717,-4.541056 -5.67569,-5.928485 -2.4385,-1.387427 -5.25532,-2.081105 -8.45061,-2.081105 z m 37.25597,0 c -3.23733,0 -6.07529,0.693678 -8.5138,2.081105 -2.43851,1.387429 -4.33083,3.363845 -5.67622,5.928485 -1.30334,2.522595 -1.95455,5.423246 -1.95455,8.702621 0,3.279374 0.65121,6.201348 1.95455,8.765987 1.34539,2.522598 3.23771,4.477689 5.67622,5.865118 2.43851,1.387426 5.27647,2.081105 8.5138,2.081105 3.19529,0 6.0121,-0.693679 8.45061,-2.081105 2.43851,-1.387429 4.3303,-3.34252 5.67569,-5.865118 1.34539,-2.564639 2.01827,-5.486613 2.01827,-8.765987 0,-3.279375 -0.67288,-6.180026 -2.01827,-8.702621 -1.34539,-2.56464 -3.23718,-4.541056 -5.67569,-5.928485 -2.43851,-1.387427 -5.25532,-2.081105 -8.45061,-2.081105 z m 134.53384,0 c -3.95206,0 -6.99987,0.925238 -9.14409,2.775144 -2.10216,1.849902 -3.15351,4.246288 -3.15351,7.189317 0,2.102163 0.56771,3.80487 1.70287,5.108213 1.17723,1.261296 2.56474,2.207359 4.16237,2.838007 1.6397,0.630651 3.69958,1.240032 6.18015,1.828636 2.43851,0.630651 4.18336,1.198387 5.23444,1.702907 1.09311,0.504518 1.63966,1.240344 1.63966,2.207338 0,2.985072 -2.33316,4.477545 -6.99995,4.477545 -1.68175,0 -3.19559,-0.168087 -4.54097,-0.504433 -1.3454,-0.336347 -2.69063,-0.798965 -4.036,-1.387571 -0.37841,-0.168174 -0.75687,-0.252469 -1.13525,-0.252469 -0.71473,0 -1.30305,0.252384 -1.76554,0.756902 -0.46247,0.50452 -0.69399,1.093078 -0.69399,1.76577 0,0.882909 0.35731,1.576587 1.07207,2.081105 3.44753,1.891947 7.27342,2.83801 11.47774,2.83801 3.86797,0 6.85341,-0.88259 8.95557,-2.648406 2.14422,-1.765817 3.21618,-3.994116 3.21618,-6.684885 0,-2.186249 -0.56771,-3.931106 -1.70287,-5.234446 -1.09311,-1.303341 -2.41723,-2.249403 -3.97283,-2.838007 -1.55558,-0.63065 -3.57371,-1.261358 -6.05427,-1.892006 -2.48054,-0.546562 -4.30945,-1.114298 -5.48665,-1.702905 -1.17723,-0.588606 -1.76606,-1.513343 -1.76606,-2.774639 0,-1.303343 0.63059,-2.354521 1.8919,-3.153344 1.30335,-0.840864 3.09047,-1.261335 5.36081,-1.261335 2.35442,0 4.75049,0.378324 7.189,1.135102 0.33635,0.08409 0.60963,0.126233 0.81983,0.126233 0.71473,0 1.30359,-0.252384 1.76606,-0.756902 0.50452,-0.504518 0.75665,-1.093078 0.75665,-1.76577 0,-0.504518 -0.16809,-0.987963 -0.50444,-1.450436 -0.2943,-0.462477 -0.73567,-0.777832 -1.32428,-0.946003 -2.85895,-1.051083 -5.90728,-1.576672 -9.1446,-1.576672 z m 96.96301,0 c -3.32144,0 -6.11764,0.777973 -8.38798,2.333574 -2.27033,1.5556 -3.95176,3.594486 -5.04487,6.117081 -1.09314,2.522595 -1.63966,5.276482 -1.63966,8.261556 0,5.297451 1.42927,9.417871 4.28821,12.360899 2.90098,2.900985 6.91608,4.351311 12.04537,4.351311 2.52259,0 4.58302,-0.231058 6.18066,-0.693535 1.59763,-0.462476 3.21615,-1.156152 4.85584,-2.081105 1.09314,-0.63065 1.63969,-1.408623 1.63969,-2.333573 0,-0.714737 -0.25212,-1.303297 -0.75665,-1.765771 -0.50452,-0.462476 -1.09335,-0.693534 -1.76605,-0.693534 -0.42044,0 -0.7989,0.08379 -1.13525,0.251964 -1.26129,0.630651 -2.56425,1.114093 -3.90965,1.450439 -1.30332,0.336344 -2.83834,0.504935 -4.60415,0.504935 -3.32142,0 -5.9067,-0.82012 -7.75663,-2.459807 -1.8499,-1.639687 -2.94301,-3.930956 -3.27933,-6.873983 h 21.37899 c 0.88291,0 1.5764,-0.273208 2.08093,-0.81977 0.54658,-0.546562 0.81983,-1.219417 0.81983,-2.018239 0,-2.858942 -0.58828,-5.486387 -1.76551,-7.882852 -1.17722,-2.43851 -2.90144,-4.372779 -5.17177,-5.80225 -2.27037,-1.471515 -4.96084,-2.20734 -8.07202,-2.20734 z m 18.14743,4.22558 8.95506,26.2351 c 0.25223,0.756779 0.71475,1.386984 1.38745,1.891504 0.6727,0.504518 1.42963,0.756902 2.27047,0.756902 0.84088,0 1.59729,-0.252384 2.26999,-0.756902 0.67267,-0.50452 1.15631,-1.156049 1.45063,-1.954871 l 6.68508,-20.874422 6.68456,20.874422 c 0.29432,0.798822 0.77797,1.450351 1.45067,1.954871 0.67267,0.504518 1.42962,0.756902 2.27047,0.756902 0.84087,0 1.59728,-0.252384 2.26995,-0.756902 0.6727,-0.50452 1.13522,-1.134725 1.38749,-1.891504 l 8.95557,-26.2351 c 0.12612,-0.378391 0.18903,-0.735893 0.18903,-1.072239 0,-0.79882 -0.27328,-1.471675 -0.81986,-2.018239 -0.54656,-0.546563 -1.21945,-0.819768 -2.01826,-0.819768 -0.58862,0 -1.13517,0.16809 -1.63967,0.504433 -0.46249,0.294305 -0.77753,0.693954 -0.9457,1.198472 l -7.37855,24.279729 -7.31589,-23.711926 c -0.21023,-0.672692 -0.6093,-1.219607 -1.19791,-1.640039 -0.54655,-0.420432 -1.17717,-0.630669 -1.8919,-0.630669 -0.71473,0 -1.36647,0.210237 -1.95508,0.630669 -0.54656,0.420432 -0.85028,1.030274 -1.13525,1.640039 l -7.31537,23.711926 -7.37906,-24.279729 c -0.16818,-0.504518 -0.50436,-0.904167 -1.00889,-1.198472 -3.08624,-1.151173 -4.72713,1.632383 -4.22503,3.405813 z m -18.14743,0.630668 c 3.22419,0.104164 6.12119,1.723474 7.69394,4.035974 0.96699,1.387429 1.51354,3.111462 1.63969,5.171584 h -18.60408 c 0.12612,-2.060122 0.65152,-3.784155 1.57648,-5.171584 0.92494,-1.387426 2.08096,-2.396457 3.46839,-3.027105 1.38743,-0.672692 2.79609,-1.008869 4.22558,-1.008869 z m -268.75282,0.3782 c 7.10603,0.331798 10.36028,5.555292 10.4057,11.414895 0,2.648728 -0.52594,4.834877 -1.57702,6.558652 -1.00905,1.723773 -2.312,2.985187 -3.90964,3.78401 -1.5556,0.798822 -3.19526,1.197967 -4.91904,1.197967 -1.76582,0 -3.44776,-0.399145 -5.04541,-1.197967 -1.5556,-0.798823 -2.83794,-2.060237 -3.84698,-3.78401 -1.00904,-1.723775 -1.5133,-3.909924 -1.5133,-6.558652 0,-2.606681 0.50426,-4.77201 1.5133,-6.495783 1.00904,-1.723773 2.29138,-2.963864 3.84698,-3.720642 1.59765,-0.798823 3.27959,-1.19847 5.04541,-1.19847 z m 46.08464,4.919112 c 1.05108,1.723773 1.57702,3.889102 1.57702,6.495783 0,2.648728 -0.52594,4.834877 -1.57702,6.558652 -1.00904,1.723773 -2.31199,2.985187 -3.90963,3.78401 -1.5556,0.798822 -3.19527,1.197967 -4.91904,1.197967 -1.76581,0 -3.44776,-0.399145 -5.04541,-1.197967 -1.5556,-0.798823 -2.83794,-2.060237 -3.84698,-3.78401 -1.00904,-1.723775 -1.51331,-3.909924 -1.51331,-6.558652 0,-2.606681 0.50427,-4.77201 1.51331,-6.495783 1.00904,-1.723773 2.29138,-2.963864 3.84698,-3.720642 5.15303,-2.448691 11.22713,-0.703604 13.87408,3.720642 z m 28.36411,-4.792879 c 4.02874,0.138087 7.55787,2.127308 9.96445,4.730013 v 13.243534 c -1.30334,1.429471 -2.81721,2.585767 -4.54099,3.468678 -1.68172,0.840864 -3.48947,1.261335 -5.42346,1.261335 -3.1112,0 -5.61299,-0.988207 -7.50493,-2.964242 -1.89195,-1.976033 -2.83758,-4.772068 -2.83758,-8.387788 0,-3.615722 0.94563,-6.411254 2.83758,-8.387287 1.89194,-1.976033 4.39373,-2.964243 7.50493,-2.964243 z"
             sodipodi:nodetypes="scscsccsccscscsssscsscssccsccsssssssssccsccscssscscssccsscccscsccccccscscccssscsssscscccsscsscscsccssccccsscscssscscsssscscssscscssscsccccssscssscscscccsscscscsccssssscsscsssscsscscsccsccssscccsssccssscccccsccccccccccsccccccscssscccsccscsssccccccssssc" />
        </g>
      </g>
    </g>
    <path
       style="fill:#3b3355;fill-opacity:1;stroke:none;stroke-width:0.264583px;stroke-linecap:butt;stroke-linejoin:miter;stroke-opacity:1"
       d="M -10.436533,82.637503 C -2.7417609,74.886556 6.3578855,68.534547 16.286392,63.983563 40.033093,53.098658 67.57738,52.915938 93.096735,58.497111 c 15.210735,3.326642 30.037175,8.613881 45.509425,10.358183 7.73612,0.872151 15.62605,0.839113 23.24141,-0.777867 7.61536,-1.61698 14.96077,-4.867414 20.86123,-9.946079 9.87009,-8.495418 14.86368,-21.14562 20.86829,-32.701373 3.0023,-5.777877 6.36819,-11.431656 10.78332,-16.2175055 4.41513,-4.7858498 9.96348,-8.68903884 16.26341,-10.3348139 1.32012,-0.3448643 2.66638,-0.5896379 4.0234,-0.7315271 V 86.660903 H -10.414345 Z"
       id="path872"
       inkscape:path-effect="#path-effect874"
       inkscape:original-d="m -10.436533,82.637503 c 0,0 17.9448655,-12.435694 26.722925,-18.65394 8.77806,-6.218245 51.207159,-3.657369 76.810343,-5.486452 25.603185,-1.829084 59.741645,-0.243579 89.612065,-0.365763 29.87042,-0.122187 24.72849,-47.167463 47.91502,-59.2536924 15.78853,-8.2299437 4.0234,-0.7315271 4.0234,-0.7315271 V 86.660903 H -10.414345 Z"
       sodipodi:nodetypes="csssscccc" />
  </g>
  <g
     inkscape:groupmode="layer"
     id="layer4"
     inkscape:label="Logo"
     transform="translate(2.3675475,6.974561)">
    <g
       id="g15090"
       transform="matrix(0.26809588,0,0,0.26809588,29.53103,12.783493)"
       inkscape:export-filename="C:\Users\jorje\Google Drive\Side Project\Branding\Graphics\Logo v1\Logo Facebook Banner.png"
       inkscape:export-xdpi="80.080002"
       inkscape:export-ydpi="80.080002">
      <g
         id="g15080">
        <g
           id="g14717"
           transform="translate(-1.8716561,-6.474584)">
          <g
             inkscape:label="Atom"
             id="layer1"
             style="display:inline"
             transform="translate(-43.715535,-47.895035)">
            <ellipse
               style="fill:none;stroke:#5d5d81;stroke-width:7.5;stroke-miterlimit:4;stroke-dasharray:none;stroke-opacity:1"
               id="ellipse1012"
               cx="157.26855"
               cy="-30.444517"
               rx="26.42626"
               ry="51.725418"
               transform="rotate(60)" />
          </g>
          <g
             id="layer2"
             inkscape:label="Wrench"
             transform="translate(-43.715535,-47.895035)" />
        </g>
        <ellipse
           style="display:inline;fill:none;stroke:#5d5d81;stroke-width:7.5;stroke-miterlimit:4;stroke-dasharray:none;stroke-opacity:1"
           id="ellipse1116"
           cx="27.976667"
           cy="-84.756363"
           rx="26.425913"
           ry="51.725418"
           transform="rotate(120)" />
        <ellipse
           style="display:inline;fill:none;stroke:#5d5d81;stroke-width:7.5;stroke-miterlimit:4;stroke-dasharray:none;stroke-opacity:1"
           id="path53"
           cx="59.412815"
           cy="66.606689"
           rx="26.42626"
           ry="51.725418" />
      </g>
      <path
         id="rect1224"
         style="fill:#bfcde0;fill-opacity:1;stroke:#5d5d81;stroke-width:7;stroke-miterlimit:4;stroke-dasharray:none;stroke-opacity:1"
         d="m 126.33459,20.891647 c -0.85147,-0.751206 -2.24628,-0.519223 -3.5943,0.816645 l -12.10063,11.991592 c -2.15688,2.137884 -5.65435,2.137886 -7.81124,5e-6 L 89.544134,20.535279 c -2.15733,-2.137458 -2.15733,-5.603411 0,-7.740869 L 101.57484,0.87209405 c 2.15679,-2.13737005 1.45759,-4.38072605 -1.587426,-4.34641205 -5.8214,0.06559 -11.58875,1.910687 -16.50401,5.280201 -2.50511,1.717307 -6.0382,5.212589 -7.77552,7.692168 -4.58968,6.550926 -6.23152,14.430497 -4.87453,21.729557 0.55168,2.967503 -0.20549,6.977798 -2.36237,9.115182 l -64.3513101,63.7715 c -0.0075,0.007 -0.01496,0.0136 -0.02242,0.0204 -3.99137498,3.95533 -3.99137198,10.36828 8e-6,14.3236 3.991288,3.9554 10.4625311,3.9554 14.4538191,0 L 82.924114,54.665666 c 2.15683,-2.13739 6.20356,-2.88776 9.19804,-2.34108 7.36536,1.34462 15.316696,-0.28239 21.927116,-4.83065 2.5022,-1.72156 6.03017,-5.221442 7.76485,-7.702714 3.43531,-4.914763 5.30257,-10.690201 5.33986,-16.512076 0.006,-1.131636 -0.30817,-1.936541 -0.8191,-2.38725 z"
         sodipodi:nodetypes="sccccccsscsccccccscccss" />
    </g>
  </g>
</svg>
