<?xml version="1.0" encoding="UTF-8" standalone="no"?>
<!-- Created with Inkscape (http://www.inkscape.org/) -->

<svg
   width="600"
   height="600"
   viewBox="0 0 158.75 158.75001"
   version="1.1"
   id="svg5"
   inkscape:version="1.1 (c68e22c387, 2021-05-23)"
   sodipodi:docname="Logo Zoomed Var 1 Wide Border.svg"
   inkscape:export-filename="C:\Users\jorje\Google Drive\Side Project\Branding\Graphics\Logo v1\Logo Zoomed Var 1 Wide Border.png"
   inkscape:export-xdpi="150"
   inkscape:export-ydpi="150"
   xmlns:inkscape="http://www.inkscape.org/namespaces/inkscape"
   xmlns:sodipodi="http://sodipodi.sourceforge.net/DTD/sodipodi-0.dtd"
   xmlns="http://www.w3.org/2000/svg"
   xmlns:svg="http://www.w3.org/2000/svg">
  <sodipodi:namedview
     id="namedview7"
     pagecolor="#ffffff"
     bordercolor="#999999"
     borderopacity="1"
     inkscape:pageshadow="0"
     inkscape:pageopacity="0"
     inkscape:pagecheckerboard="0"
     inkscape:document-units="mm"
     showgrid="false"
     inkscape:zoom="0.5115017"
     inkscape:cx="-252.19858"
     inkscape:cy="380.25289"
     inkscape:window-width="1920"
     inkscape:window-height="1017"
     inkscape:window-x="-8"
     inkscape:window-y="-8"
     inkscape:window-maximized="1"
     inkscape:current-layer="layer3"
     fit-margin-top="0"
     fit-margin-left="0"
     fit-margin-right="0"
     fit-margin-bottom="0"
     units="px" />
  <defs
     id="defs2">
    <inkscape:path-effect
       effect="fillet_chamfer"
       id="path-effect3622"
       is_visible="true"
       lpeversion="1"
       satellites_param="F,0,1,1,0,9.1631394,0,1 @ F,0,1,1,0,9.1631394,0,1 @ F,0,1,1,0,9.1631394,0,1 @ F,0,1,1,0,9.1631394,0,1 @ F,0,1,1,0,9.1631394,0,1 @ F,0,1,1,0,9.1631394,0,1 @ F,0,0,1,0,0,0,1 @ F,0,0,1,0,0,0,1 @ F,0,0,1,0,9.1631394,0,1 @ F,0,1,1,0,9.1631394,0,1"
       unit="px"
       method="auto"
       mode="F"
       radius="0"
       chamfer_steps="1"
       flexible="false"
       use_knot_distance="true"
       apply_no_radius="true"
       apply_with_radius="true"
       only_selected="false"
       hide_knots="false" />
    <inkscape:path-effect
       effect="fillet_chamfer"
       id="path-effect3468"
       is_visible="true"
       lpeversion="1"
       satellites_param="F,0,0,1,0,0,0,1 @ F,0,0,1,0,0,0,1 @ F,0,0,1,0,0,0,1 @ F,0,0,1,0,0,0,1 @ F,0,0,1,0,0,0,1 @ F,0,0,1,0,0,0,1 @ F,0,0,1,0,0,0,1 @ F,0,0,1,0,0,0,1 @ F,0,0,1,0,0,0,1 @ F,0,0,1,0,0,0,1"
       unit="px"
       method="auto"
       mode="F"
       radius="20"
       chamfer_steps="1"
       flexible="false"
       use_knot_distance="true"
       apply_no_radius="true"
       apply_with_radius="true"
       only_selected="false"
       hide_knots="false" />
    <inkscape:path-effect
       effect="fillet_chamfer"
       id="path-effect2514"
       is_visible="true"
       lpeversion="1"
       satellites_param="F,0,0,1,0,0,0,1 @ F,0,0,1,0,0,0,1 @ F,0,0,1,0,0,0,1 @ F,0,0,1,0,0,0,1 @ F,0,0,1,0,0,0,1 @ F,0,0,1,0,0,0,1 @ F,0,0,1,0,0,0,1"
       unit="px"
       method="auto"
       mode="F"
       radius="20"
       chamfer_steps="1"
       flexible="false"
       use_knot_distance="true"
       apply_no_radius="true"
       apply_with_radius="true"
       only_selected="false"
       hide_knots="false" />
  </defs>
  <g
     inkscape:groupmode="layer"
     id="layer3"
     inkscape:label="Background">
    <rect
       style="fill:#f1f4f8;fill-opacity:1;stroke-width:8.7239"
       id="rect876"
       width="256.04755"
       height="219.83879"
       x="-54.313114"
       y="-25.863388" />
  </g>
  <g
     inkscape:label="Atom"
     inkscape:groupmode="layer"
     id="layer1"
     style="display:none"
     transform="translate(-47.277948,-51.448862)">
    <ellipse
       style="fill:none;stroke:#5d5d81;stroke-width:3.22326;stroke-miterlimit:4;stroke-dasharray:none;stroke-opacity:1"
       id="path53"
       cx="105"
       cy="120.9763"
       rx="26.297346"
       ry="51.473091" />
    <ellipse
       style="fill:none;stroke:#5d5d81;stroke-width:3.22326;stroke-miterlimit:4;stroke-dasharray:none;stroke-opacity:1"
       id="ellipse1012"
       cx="157.26855"
       cy="-30.444517"
       rx="26.297346"
       ry="51.473091"
       transform="rotate(60)" />
    <ellipse
       style="fill:none;stroke:#5d5d81;stroke-width:3.22326;stroke-miterlimit:4;stroke-dasharray:none;stroke-opacity:1"
       id="ellipse1116"
       cx="52.268547"
       cy="-151.42082"
       rx="26.297001"
       ry="51.473091"
       transform="rotate(120)" />
  </g>
  <g
     inkscape:groupmode="layer"
     id="layer2"
     inkscape:label="Wrench"
     transform="translate(-47.277948,-51.448862)">
    <path
       id="rect1224"
       style="fill:#bfcde0;fill-opacity:1;stroke:#5d5d81;stroke-width:7.5;stroke-linejoin:round;stroke-miterlimit:4;stroke-dasharray:none;stroke-opacity:1"
       d="m 172.93412,121.59656 c -1.31902,-1.16369 -3.47972,-0.80433 -5.56794,1.26507 l -18.74508,18.57618 a 8.55543,8.4783457 0 0 1 -12.10041,10e-6 L 115.942,121.04451 a 8.55543,8.4783457 0 0 1 0,-11.99138 l 18.63677,-18.468865 c 3.34109,-3.311 2.25797,-6.786184 -2.45907,-6.733028 -9.01794,0.10161 -17.95215,2.959846 -25.56637,8.179561 -3.88067,2.660282 -9.353784,8.074822 -12.045064,11.915942 -7.10988,10.14804 -9.65325,22.35429 -7.55114,33.66127 0.85462,4.59696 -0.31833,10.8093 -3.65954,14.12033 l -99.686651,98.78845 a 15.832253,15.689605 0 0 0 -0.03473,0.0316 15.832253,15.689605 0 0 0 1.3e-5,22.18869 15.832253,15.689605 0 0 0 22.390417,0 l 99.720305,-98.82117 c 3.34113,-3.31103 9.60992,-4.47343 14.24868,-3.62657 11.40968,2.08296 23.72709,-0.43745 33.9673,-7.48316 3.87616,-2.66688 9.34134,-8.08854 12.02853,-11.93228 5.32165,-7.61346 8.21422,-16.5602 8.27199,-25.57887 0.01,-1.75301 -0.4774,-2.99989 -1.26887,-3.69809 z M 0.72362399,255.74461 a 8.4166944,8.3408602 0 0 1 0,11.79717 8.4166944,8.3408602 0 0 1 -11.90312599,-0.001 8.4166944,8.3408602 0 0 1 0,-11.7946 8.4166944,8.3408602 0 0 1 11.90312599,-0.001 z" />
  </g>
</svg>
