<?xml version="1.0" encoding="UTF-8" standalone="no"?>
<!-- Created with Inkscape (http://www.inkscape.org/) -->

<svg
   width="124.8895mm"
   height="123.78464mm"
   viewBox="0 0 124.8895 123.78464"
   version="1.1"
   id="svg5"
   inkscape:version="1.1 (c68e22c387, 2021-05-23)"
   sodipodi:docname="Logo Zoomed Var 1.svg"
   inkscape:export-filename="C:\Users\jorje\Google Drive\Side Project\Branding\Graphics\Logo v1\Logo Zoomed Var 1.png"
   inkscape:export-xdpi="40.68"
   inkscape:export-ydpi="40.68"
   xmlns:inkscape="http://www.inkscape.org/namespaces/inkscape"
   xmlns:sodipodi="http://sodipodi.sourceforge.net/DTD/sodipodi-0.dtd"
   xmlns="http://www.w3.org/2000/svg"
   xmlns:svg="http://www.w3.org/2000/svg">
  <sodipodi:namedview
     id="namedview7"
     pagecolor="#ffffff"
     bordercolor="#999999"
     borderopacity="1"
     inkscape:pageshadow="0"
     inkscape:pageopacity="0"
     inkscape:pagecheckerboard="0"
     inkscape:document-units="mm"
     showgrid="false"
     inkscape:zoom="0.5115017"
     inkscape:cx="-251.22106"
     inkscape:cy="380.25289"
     inkscape:window-width="1920"
     inkscape:window-height="1017"
     inkscape:window-x="-8"
     inkscape:window-y="-8"
     inkscape:window-maximized="1"
     inkscape:current-layer="layer3"
     fit-margin-top="0"
     fit-margin-left="0"
     fit-margin-right="0"
     fit-margin-bottom="0" />
  <defs
     id="defs2">
    <inkscape:path-effect
       effect="fillet_chamfer"
       id="path-effect3622"
       is_visible="true"
       lpeversion="1"
       satellites_param="F,0,1,1,0,9.1631394,0,1 @ F,0,1,1,0,9.1631394,0,1 @ F,0,1,1,0,9.1631394,0,1 @ F,0,1,1,0,9.1631394,0,1 @ F,0,1,1,0,9.1631394,0,1 @ F,0,1,1,0,9.1631394,0,1 @ F,0,0,1,0,0,0,1 @ F,0,0,1,0,0,0,1 @ F,0,0,1,0,9.1631394,0,1 @ F,0,1,1,0,9.1631394,0,1"
       unit="px"
       method="auto"
       mode="F"
       radius="0"
       chamfer_steps="1"
       flexible="false"
       use_knot_distance="true"
       apply_no_radius="true"
       apply_with_radius="true"
       only_selected="false"
       hide_knots="false" />
    <inkscape:path-effect
       effect="fillet_chamfer"
       id="path-effect3468"
       is_visible="true"
       lpeversion="1"
       satellites_param="F,0,0,1,0,0,0,1 @ F,0,0,1,0,0,0,1 @ F,0,0,1,0,0,0,1 @ F,0,0,1,0,0,0,1 @ F,0,0,1,0,0,0,1 @ F,0,0,1,0,0,0,1 @ F,0,0,1,0,0,0,1 @ F,0,0,1,0,0,0,1 @ F,0,0,1,0,0,0,1 @ F,0,0,1,0,0,0,1"
       unit="px"
       method="auto"
       mode="F"
       radius="20"
       chamfer_steps="1"
       flexible="false"
       use_knot_distance="true"
       apply_no_radius="true"
       apply_with_radius="true"
       only_selected="false"
       hide_knots="false" />
    <inkscape:path-effect
       effect="fillet_chamfer"
       id="path-effect2514"
       is_visible="true"
       lpeversion="1"
       satellites_param="F,0,0,1,0,0,0,1 @ F,0,0,1,0,0,0,1 @ F,0,0,1,0,0,0,1 @ F,0,0,1,0,0,0,1 @ F,0,0,1,0,0,0,1 @ F,0,0,1,0,0,0,1 @ F,0,0,1,0,0,0,1"
       unit="px"
       method="auto"
       mode="F"
       radius="20"
       chamfer_steps="1"
       flexible="false"
       use_knot_distance="true"
       apply_no_radius="true"
       apply_with_radius="true"
       only_selected="false"
       hide_knots="false" />
  </defs>
  <g
     inkscape:groupmode="layer"
     id="layer3"
     inkscape:label="Background">
    <rect
       style="fill:#f1f4f8;stroke-width:7.50001;fill-opacity:1"
       id="rect876"
       width="233.80502"
       height="177.94011"
       x="-63.106667"
       y="-32.587868" />
  </g>
  <g
     inkscape:label="Atom"
     inkscape:groupmode="layer"
     id="layer1"
     style="display:none"
     transform="translate(-47.277948,-51.448862)">
    <ellipse
       style="fill:none;stroke:#5d5d81;stroke-width:3.22326;stroke-miterlimit:4;stroke-dasharray:none;stroke-opacity:1"
       id="path53"
       cx="105"
       cy="120.9763"
       rx="26.297346"
       ry="51.473091" />
    <ellipse
       style="fill:none;stroke:#5d5d81;stroke-width:3.22326;stroke-miterlimit:4;stroke-dasharray:none;stroke-opacity:1"
       id="ellipse1012"
       cx="157.26855"
       cy="-30.444517"
       rx="26.297346"
       ry="51.473091"
       transform="rotate(60)" />
    <ellipse
       style="fill:none;stroke:#5d5d81;stroke-width:3.22326;stroke-miterlimit:4;stroke-dasharray:none;stroke-opacity:1"
       id="ellipse1116"
       cx="52.268547"
       cy="-151.42082"
       rx="26.297001"
       ry="51.473091"
       transform="rotate(120)" />
  </g>
  <g
     inkscape:groupmode="layer"
     id="layer2"
     inkscape:label="Wrench"
     transform="translate(-47.277948,-51.448862)">
    <path
       id="rect1224"
       style="fill:#bfcde0;fill-opacity:1;stroke:#5d5d81;stroke-width:7.5;stroke-miterlimit:4;stroke-dasharray:none;stroke-opacity:1;stroke-linejoin:round"
       d="m 154.31248,103.49219 c -1.31902,-1.16369 -3.47972,-0.80433 -5.56794,1.26507 l -18.74508,18.57618 a 8.55543,8.4783457 0 0 1 -12.10041,1e-5 L 97.320357,102.94014 a 8.55543,8.4783457 0 0 1 0,-11.99138 L 115.95713,72.479894 c 3.34109,-3.311 2.25797,-6.786184 -2.45907,-6.733028 -9.01794,0.10161 -17.952153,2.959846 -25.566373,8.179561 -3.88067,2.660282 -9.35378,8.074823 -12.04506,11.915941 -7.10988,10.148042 -9.65325,22.354292 -7.55114,33.661272 0.85462,4.59696 -0.31833,10.8093 -3.65954,14.12033 l -99.686651,98.78845 a 15.832253,15.689605 0 0 0 -0.03473,0.0316 15.832253,15.689605 0 0 0 1.3e-5,22.18869 15.832253,15.689605 0 0 0 22.390417,0 l 99.720301,-98.82117 c 3.34113,-3.31103 9.60992,-4.47343 14.248683,-3.62657 11.40968,2.08296 23.72709,-0.43745 33.9673,-7.48316 3.87616,-2.66688 9.34134,-8.08854 12.02853,-11.93228 5.32165,-7.61346 8.21422,-16.5602 8.27199,-25.57887 0.01,-1.75301 -0.4774,-2.99989 -1.26887,-3.69809 z M -17.898015,237.64024 a 8.4166944,8.3408602 0 0 1 0,11.79717 8.4166944,8.3408602 0 0 1 -11.903126,-0.001 8.4166944,8.3408602 0 0 1 0,-11.7946 8.4166944,8.3408602 0 0 1 11.903126,-0.001 z" />
  </g>
</svg>
